<svg width="155" height="389" viewBox="0 0 155 389" fill="none" xmlns="http://www.w3.org/2000/svg">
<path d="M155 35C155 29.4772 150.523 25 145 25H115C98.4315 25 85 38.4315 85 55V85C85 90.5229 89.4771 95 95 95H125C141.569 95 155 81.5685 155 65V35Z" fill="#0827B6" fill-opacity="0.56"/>
<path d="M8 10C8 4.47715 12.4772 0 18 0H48C59.0457 0 68 8.95431 68 20V50C68 55.5228 63.5228 60 58 60H28C16.9543 60 8 51.0457 8 40V10Z" fill="#C4C4C4" fill-opacity="0.47"/>
<path d="M0 294C0 288.477 4.47715 284 10 284H75C91.5685 284 105 297.431 105 314V379C105 384.523 100.523 389 95 389H30C13.4315 389 0 375.569 0 359V294Z" fill="#FC921A" fill-opacity="0.54"/>
<path d="M136 221C136 215.477 131.523 211 126 211H96C84.9543 211 76 219.954 76 231V261C76 266.523 80.4772 271 86 271H116C127.046 271 136 262.046 136 251V221Z" fill="#C4C4C4" fill-opacity="0.47"/>
</svg>
