<svg width="147" height="405" viewBox="0 0 147 405" fill="none" xmlns="http://www.w3.org/2000/svg">
<path d="M0 35C0 29.4772 4.47715 25 10 25H40C56.5685 25 70 38.4315 70 55V85C70 90.5229 65.5229 95 60 95H30C13.4315 95 0 81.5685 0 65V35Z" fill="#C4C4C4"/>
<path d="M147 10C147 4.47715 142.523 0 137 0H107C95.9543 0 87 8.95431 87 20V50C87 55.5228 91.4772 60 97 60H127C138.046 60 147 51.0457 147 40V10Z" fill="#C4C4C4" fill-opacity="0.47"/>
<path d="M140 310C140 304.477 135.523 300 130 300H65C48.4315 300 35 313.431 35 330V395C35 400.523 39.4771 405 45 405H110C126.569 405 140 391.569 140 375V310Z" fill="#C4C4C4" fill-opacity="0.68"/>
<path d="M4 237C4 231.477 8.47715 227 14 227H44C55.0457 227 64 235.954 64 247V277C64 282.523 59.5228 287 54 287H24C12.9543 287 4 278.046 4 267V237Z" fill="#C4C4C4" fill-opacity="0.47"/>
</svg>
