<?xml version="1.0" encoding="UTF-8" standalone="no"?>
<svg
   id="Layer_1"
   data-name="Layer 1"
   viewBox="0 0 1031.48 696.11"
   version="1.1"
   sodipodi:docname="GrowStar2.svg"
   inkscape:version="1.1 (c68e22c387, 2021-05-23)"
   xmlns:inkscape="http://www.inkscape.org/namespaces/inkscape"
   xmlns:sodipodi="http://sodipodi.sourceforge.net/DTD/sodipodi-0.dtd"
   xmlns="http://www.w3.org/2000/svg"
   xmlns:svg="http://www.w3.org/2000/svg"
   xmlns:rdf="http://www.w3.org/1999/02/22-rdf-syntax-ns#"
   xmlns:cc="http://creativecommons.org/ns#"
   xmlns:dc="http://purl.org/dc/elements/1.1/">
  <sodipodi:namedview
     id="namedview317"
     pagecolor="#ffffff"
     bordercolor="#666666"
     borderopacity="1.0"
     inkscape:pageshadow="2"
     inkscape:pageopacity="0.0"
     inkscape:pagecheckerboard="0"
     showgrid="false"
     inkscape:zoom="0.71396762"
     inkscape:cx="516.12985"
     inkscape:cy="207.99263"
     inkscape:window-width="1366"
     inkscape:window-height="705"
     inkscape:window-x="-8"
     inkscape:window-y="-8"
     inkscape:window-maximized="1"
     inkscape:current-layer="Layer_1" />
  <defs
     id="defs282">
    <style
       id="style238">.cls-1{fill:url(#linear-gradient);}.cls-2{fill:#ffdf00;}.cls-3{fill:url(#linear-gradient-2);}.cls-4{fill:url(#linear-gradient-3);}.cls-5{fill:#fbb03b;}.cls-6{fill:url(#linear-gradient-4);}.cls-7{fill:#fcee21;}.cls-8{fill:#00a99d;}.cls-9{fill:url(#linear-gradient-5);}.cls-10{fill:#ffec00;}.cls-11{fill:url(#linear-gradient-6);}.cls-12{fill:#1b1464;}</style>
    <linearGradient
       id="linear-gradient"
       x1="635.98"
       y1="397.42"
       x2="1153.68"
       y2="192.66"
       gradientUnits="userSpaceOnUse"
       gradientTransform="matrix(0.14541839,0,0,0.14363801,-56.184574,-24.634069)">
      <stop
         offset="0.01"
         stop-color="#1b1464"
         id="stop240" />
      <stop
         offset="0.57"
         stop-color="#0030da"
         id="stop242" />
    </linearGradient>
    <linearGradient
       id="linear-gradient-2"
       x1="742.61"
       y1="674.64"
       x2="1046.53"
       y2="674.64"
       gradientUnits="userSpaceOnUse"
       gradientTransform="matrix(0.14541839,0,0,0.14363801,-56.184574,-24.634069)">
      <stop
         offset="0"
         stop-color="#ffe900"
         id="stop245" />
      <stop
         offset="0.2"
         stop-color="#fe0"
         id="stop247" />
      <stop
         offset="0.52"
         stop-color="#fba900"
         id="stop249" />
      <stop
         offset="0.83"
         stop-color="#f86400"
         id="stop251" />
    </linearGradient>
    <linearGradient
       id="linear-gradient-3"
       x1="827.24"
       y1="780.07"
       x2="1399.8"
       y2="527.89"
       gradientUnits="userSpaceOnUse"
       gradientTransform="matrix(0.14541839,0,0,0.14363801,-56.184574,-24.634069)">
      <stop
         offset="0.01"
         stop-color="#1b1464"
         id="stop254" />
      <stop
         offset="0.76"
         stop-color="#0030da"
         id="stop256" />
    </linearGradient>
    <linearGradient
       id="linear-gradient-4"
       x1="690.5"
       y1="440.09"
       x2="1020.38"
       y2="440.09"
       gradientUnits="userSpaceOnUse"
       gradientTransform="matrix(0.14541839,0,0,0.14363801,-56.184574,-24.634069)">
      <stop
         offset="0.06"
         stop-color="#fe0"
         id="stop259" />
      <stop
         offset="0.1"
         stop-color="#ffe900"
         id="stop261" />
      <stop
         offset="0.46"
         stop-color="#fba900"
         id="stop263" />
      <stop
         offset="0.83"
         stop-color="#f86400"
         id="stop265" />
    </linearGradient>
    <linearGradient
       id="linear-gradient-5"
       x1="727.64"
       y1="644.24"
       x2="1302.76"
       y2="291.55"
       gradientUnits="userSpaceOnUse"
       gradientTransform="matrix(0.14541839,0,0,0.14363801,-56.184574,-24.634069)">
      <stop
         offset="0.06"
         stop-color="#fe0"
         id="stop268" />
      <stop
         offset="0.26"
         stop-color="#ffe900"
         id="stop270" />
      <stop
         offset="0.56"
         stop-color="#fba900"
         id="stop272" />
      <stop
         offset="0.83"
         stop-color="#f86400"
         id="stop274" />
    </linearGradient>
    <linearGradient
       id="linear-gradient-6"
       x1="373.78"
       y1="865.48"
       x2="796.14"
       y2="591.62"
       gradientTransform="matrix(0.12384528,0.07487346,-0.07529912,0.12314521,-34.934833,-50.04764)"
       gradientUnits="userSpaceOnUse">
      <stop
         offset="0.19"
         stop-color="#fe0"
         id="stop277" />
      <stop
         offset="0.86"
         stop-color="#f86400"
         id="stop279" />
    </linearGradient>
  </defs>
  <title
     id="title284">GrowStar</title>
  <path
     class="cls-1"
     d="M 98.467888,2.5882063 V 13.898263 A 38.16942,37.702105 0 0 0 82.544574,10.485424 c -20.048834,0 -36.500017,15.208393 -38.176691,34.585161 l -10.659169,6.410564 q -0.09598,-1.525436 -0.09743,-3.07529 c 0,-26.733906 21.940727,-48.4060096628 49.005999,-48.4060096628 A 48.946377,48.347118 0 0 1 98.467888,2.5882063 Z"
     id="path286"
     style="fill:url(#linear-gradient);stroke-width:0.144526" />
  <path
     class="cls-2"
     d="M 45.199676,56.846029 35.734393,62.53984 A 48.819863,48.222153 0 0 1 33.708714,51.479713 l 10.659169,-6.410565 q -0.145419,1.614492 -0.145419,3.263456 a 38.425356,37.954908 0 0 0 0.977212,8.513425 z"
     id="path288"
     style="stroke-width:0.144526" />
  <path
     class="cls-3"
     d="m 96.000138,63.15461 a 5.3019546,5.2370419 0 0 1 -2.549185,4.482943 L 61.882074,86.622189 A 38.27703,37.808397 0 0 1 51.804579,80.406972 L 87.932325,58.675977 a 5.3077714,5.2427874 0 0 1 8.067813,4.472888 z"
     id="path290"
     style="fill:url(#linear-gradient-2);stroke-width:0.144526" />
  <path
     class="cls-2"
     d="m 67.553391,83.174876 -10.683889,6.424929 a 49.189226,48.586994 0 0 1 -8.877793,-6.93628 l 9.484188,-5.702429 a 38.27703,37.808397 0 0 0 10.077494,6.21378 z"
     id="path292"
     style="stroke-width:0.144526" />
  <path
     class="cls-4"
     d="m 131.62328,48.405859 a 49.320103,48.716268 0 0 1 -0.60348,7.612815 C 127.32326,79.135776 107.06066,96.811869 82.617283,96.811869 A 48.767513,48.170444 0 0 1 56.869502,89.599805 l 10.683889,-6.424929 a 38.160695,37.693487 0 0 0 14.991183,3.00778 c 18.497216,0 33.931926,-12.944657 37.528126,-30.163982 h -9.02612 a 5.3077715,5.2427875 0 1 1 0,-10.485575 h 20.4909 q 0.0844,1.424889 0.0858,2.87276 z"
     id="path294"
     style="fill:url(#linear-gradient-3);stroke-width:0.144526" />
  <rect
     class="cls-5"
     x="-20.418173"
     y="61.28466"
     width="16.885511"
     height="10.656285"
     rx="5.3584328"
     transform="matrix(0.85727895,-0.51485222,0.52419694,0.85159707,0,0)"
     id="rect296"
     style="stroke-width:0.14453" />
  <path
     class="cls-6"
     d="m 92.197447,25.620562 a 5.3703013,5.3045518 0 0 1 -2.584085,4.541833 l -14.892298,8.944339 c -0.09743,0.05746 -0.194861,0.113474 -0.290837,0.163748 L 45.20113,56.846029 A 38.425356,37.954908 0 0 1 44.226827,48.33404 q 0,-1.6504 0.145418,-3.263455 L 68.212137,30.735511 a 5.320859,5.2557149 0 0 1 0.927769,-0.703826 L 84.03075,21.087346 a 5.3804806,5.3146064 0 0 1 8.171059,4.533216 z"
     id="path298"
     style="fill:url(#linear-gradient-4);stroke-width:0.144526" />
  <rect
     class="cls-7"
     x="-21.588743"
     y="95.50161"
     width="18.573891"
     height="10.618709"
     rx="5.3392172"
     transform="matrix(0.85587459,-0.51718342,0.52653892,0.85015102,0,0)"
     id="rect300"
     style="stroke-width:0.144016" />
  <rect
     class="cls-8"
     x="-8.1380806"
     y="78.286865"
     width="20.968473"
     height="10.656285"
     rx="5.3584328"
     transform="matrix(0.85727895,-0.51485222,0.52419694,0.85159707,0,0)"
     id="rect302"
     style="stroke-width:0.14453" />
  <path
     class="cls-9"
     d="m 134.26263,15.920687 -6.253,-1.409089 a 5.502632,5.4352624 0 0 0 -0.51478,0.272912 l -6.28353,3.779116 -9.22098,5.544427 -6.01014,3.613933 -58.749029,35.324896 -8.527335,5.127877 a 5.012572,4.9512023 0 0 0 -0.628207,0.443841 5.3063172,5.2413511 0 0 0 6.148289,8.513425 l 8.454626,-5.084785 64.911866,-39.035066 8.79636,-5.290188 0.42462,-0.255676 6.19337,-3.72597 a 5.2859586,5.2212417 0 0 0 1.20988,-1.005466 z"
     id="path304"
     style="fill:url(#linear-gradient-5);stroke-width:0.144526" />
  <rect
     class="cls-2"
     x="-8.0830927"
     y="78.325912"
     width="57.393349"
     height="10.656285"
     rx="5.3584328"
     transform="matrix(0.85727895,-0.51485222,0.52419694,0.85159707,0,0)"
     id="rect306"
     style="stroke-width:0.14453" />
  <rect
     class="cls-10"
     x="-8.0829992"
     y="78.333221"
     width="35.737862"
     height="10.656285"
     rx="5.3584328"
     transform="matrix(0.85727895,-0.51485222,0.52419694,0.85159707,0,0)"
     id="rect308"
     style="stroke-width:0.14453" />
  <rect
     class="cls-11"
     x="-33.834736"
     y="78.281754"
     width="23.087496"
     height="10.656285"
     rx="5.3584328"
     transform="matrix(0.85727895,-0.51485222,0.52419694,0.85159707,0,0)"
     id="rect310"
     style="fill:url(#linear-gradient-6);stroke-width:0.14453" />
  <rect
     class="cls-10"
     x="-50.251549"
     y="78.305336"
     width="13.876557"
     height="10.656285"
     rx="5.3584328"
     transform="matrix(0.85727895,-0.51485222,0.52419694,0.85159707,0,0)"
     id="rect312"
     style="stroke-width:0.14453" />
  <polygon
     class="cls-12"
     points="874.86,87.27 934.68,63.08 935.07,1.97 971.65,48.12 1031.48,23.93 994.26,76.65 1030.84,122.81 971.26,109.23 934.05,161.95 934.44,100.84 "
     id="polygon314"
     transform="matrix(0.14541839,0,0,0.14363801,-0.02253632,-1.506628e-4)" />
  <metadata
     id="metadata399">
    <rdf:RDF>
      <cc:Work
         rdf:about="">
        <dc:title>GrowStar</dc:title>
      </cc:Work>
    </rdf:RDF>
  </metadata>
</svg>
