<svg id="Layer_1" data-name="Layer 1" xmlns="http://www.w3.org/2000/svg" xmlns:xlink="http://www.w3.org/1999/xlink" viewBox="0 0 1031.48 696.11"><defs><style>.cls-1{fill:url(#linear-gradient);}.cls-2{fill:#ffdf00;}.cls-3{fill:url(#linear-gradient-2);}.cls-4{fill:url(#linear-gradient-3);}.cls-5{fill:#fbb03b;}.cls-6{fill:url(#linear-gradient-4);}.cls-7{fill:#fcee21;}.cls-8{fill:#00a99d;}.cls-9{fill:url(#linear-gradient-5);}.cls-10{fill:#ffec00;}.cls-11{fill:url(#linear-gradient-6);}.cls-12{fill:#1b1464;}</style><linearGradient id="linear-gradient" x1="635.98" y1="397.42" x2="1153.68" y2="192.66" gradientUnits="userSpaceOnUse"><stop offset="0.01" stop-color="#1b1464"/><stop offset="0.57" stop-color="#0030da"/></linearGradient><linearGradient id="linear-gradient-2" x1="742.61" y1="674.64" x2="1046.53" y2="674.64" gradientUnits="userSpaceOnUse"><stop offset="0" stop-color="#ffe900"/><stop offset="0.2" stop-color="#fe0"/><stop offset="0.52" stop-color="#fba900"/><stop offset="0.83" stop-color="#f86400"/></linearGradient><linearGradient id="linear-gradient-3" x1="827.24" y1="780.07" x2="1399.8" y2="527.89" gradientUnits="userSpaceOnUse"><stop offset="0.01" stop-color="#1b1464"/><stop offset="0.76" stop-color="#0030da"/></linearGradient><linearGradient id="linear-gradient-4" x1="690.5" y1="440.09" x2="1020.38" y2="440.09" gradientUnits="userSpaceOnUse"><stop offset="0.06" stop-color="#fe0"/><stop offset="0.1" stop-color="#ffe900"/><stop offset="0.46" stop-color="#fba900"/><stop offset="0.83" stop-color="#f86400"/></linearGradient><linearGradient id="linear-gradient-5" x1="727.64" y1="644.24" x2="1302.76" y2="291.55" gradientUnits="userSpaceOnUse"><stop offset="0.06" stop-color="#fe0"/><stop offset="0.26" stop-color="#ffe900"/><stop offset="0.56" stop-color="#fba900"/><stop offset="0.83" stop-color="#f86400"/></linearGradient><linearGradient id="linear-gradient-6" x1="373.78" y1="865.48" x2="796.14" y2="591.62" gradientTransform="translate(469.11 -180.3) rotate(31.3)" gradientUnits="userSpaceOnUse"><stop offset="0.19" stop-color="#fe0"/><stop offset="0.86" stop-color="#f86400"/></linearGradient></defs><title>GrowStar</title><path class="cls-1" d="M1063.5,189.52v78.74A262.48,262.48,0,0,0,954,244.5c-137.87,0-251,105.88-262.53,240.78l-73.3,44.63q-.66-10.62-.67-21.41c0-186.12,150.88-337,337-337A336.59,336.59,0,0,1,1063.5,189.52Z" transform="translate(-386.21 -171.5)"/><path class="cls-2" d="M697.19,567.26,632.1,606.9a335.72,335.72,0,0,1-13.93-77l73.3-44.63q-1,11.24-1,22.72A264.24,264.24,0,0,0,697.19,567.26Z" transform="translate(-386.21 -171.5)"/><path class="cls-3" d="M1046.53,611.18A36.46,36.46,0,0,1,1029,642.39L811.91,774.56a263.22,263.22,0,0,1-69.3-43.27L991.05,580a36.5,36.5,0,0,1,55.48,31.14Z" transform="translate(-386.21 -171.5)"/><path class="cls-2" d="M850.91,750.56l-73.47,44.73A338.26,338.26,0,0,1,716.39,747l65.22-39.7A263.22,263.22,0,0,0,850.91,750.56Z" transform="translate(-386.21 -171.5)"/><path class="cls-4" d="M1291.5,508.5a339.16,339.16,0,0,1-4.15,53c-25.42,160.94-164.76,284-332.85,284a335.36,335.36,0,0,1-177.06-50.21l73.47-44.73A262.42,262.42,0,0,0,954,771.5c127.2,0,233.34-90.12,258.07-210H1150a36.5,36.5,0,1,1,0-73h140.91Q1291.49,498.42,1291.5,508.5Z" transform="translate(-386.21 -171.5)"/><rect class="cls-5" x="497.64" y="572.39" width="116.5" height="73.94" rx="36.97" transform="translate(-621.88 205.98) rotate(-31.3)"/><path class="cls-6" d="M1020.38,349.87a36.93,36.93,0,0,1-17.77,31.62L900.2,443.76c-.67.4-1.34.79-2,1.14l-201,122.36A264.24,264.24,0,0,1,690.5,508q0-11.49,1-22.72l163.94-99.8a36.59,36.59,0,0,1,6.38-4.9l102.4-62.27a37,37,0,0,1,56.19,31.56Z" transform="translate(-386.21 -171.5)"/><rect class="cls-7" x="617.33" y="779.46" width="128.61" height="73.94" rx="36.97" transform="matrix(0.85, -0.52, 0.52, 0.85, -711.16, 301.45)"/><rect class="cls-8" x="629.27" y="621.86" width="144.67" height="73.94" rx="36.97" transform="translate(-626.37 288.88) rotate(-31.3)"/><path class="cls-9" d="M1309.65,282.34l-43-9.81a37.84,37.84,0,0,0-3.54,1.9l-43.21,26.31-63.41,38.6-41.33,25.16-404,245.93-58.64,35.7a34.47,34.47,0,0,0-4.32,3.09,36.49,36.49,0,0,0,42.28,59.27l58.14-35.4L1195,401.33l60.49-36.83,2.92-1.78L1301,336.78a36.35,36.35,0,0,0,8.32-7Z" transform="translate(-386.21 -171.5)"/><rect class="cls-2" x="611.45" y="556.61" width="395.98" height="73.94" rx="36.97" transform="translate(-576.78 335.41) rotate(-31.3)"/><rect class="cls-10" x="622.35" y="595.46" width="246.57" height="73.94" rx="36.97" transform="translate(-606.25 307.92) rotate(-31.3)"/><rect class="cls-11" x="476.7" y="710.13" width="159.29" height="73.94" rx="36.97" transform="translate(-693.37 226.27) rotate(-31.3)"/><rect class="cls-10" x="384.63" y="785.63" width="95.74" height="73.94" rx="36.97" transform="translate(-750.62 172.91) rotate(-31.3)"/><polygon class="cls-12" points="934.05 161.95 934.44 100.84 874.86 87.27 934.68 63.08 935.07 1.97 971.65 48.12 1031.48 23.93 994.26 76.65 1030.84 122.81 971.26 109.23 934.05 161.95"/></svg>