<svg width="86" height="75" viewBox="0 0 86 75" fill="none" xmlns="http://www.w3.org/2000/svg">
<path d="M14.1943 74.6865L2.17773 69.5205C5.99609 65.1781 9.66471 59.3757 13.1836 52.1133C16.7773 44.9258 18.5742 37.888 18.5742 31H0.0439453V0.00390625H36.2061V25.0479C36.2061 35.0055 33.7354 44.6637 28.7939 54.0225C23.8525 63.4561 18.986 70.3441 14.1943 74.6865ZM63.6443 74.6865L51.6277 69.5205C55.4461 65.1781 59.1147 59.3757 62.6336 52.1133C66.2273 44.9258 68.0242 37.888 68.0242 31H49.4939V0.00390625H85.6561V25.0479C85.6561 35.0055 83.1854 44.6637 78.2439 54.0225C73.3025 63.4561 68.436 70.3441 63.6443 74.6865Z" fill="#FB8500"/>
</svg>
