<svg id="ezyZgiwnR241" xmlns="http://www.w3.org/2000/svg" xmlns:xlink="http://www.w3.org/1999/xlink" viewBox="0 0 870 675" shape-rendering="geometricPrecision" text-rendering="geometricPrecision"><defs><filter id="ezyZgiwnR242-filter" x="-400%" width="600%" y="-400%" height="600%"><feGaussianBlur id="ezyZgiwnR242-filter-drop-shadow-0-blur" in="SourceAlpha" stdDeviation="0,0"/><feOffset id="ezyZgiwnR242-filter-drop-shadow-0-offset" dx="0" dy="0" result="tmp"/><feFlood id="ezyZgiwnR242-filter-drop-shadow-0-flood" flood-color="rgb(99,15,15)"/><feComposite id="ezyZgiwnR242-filter-drop-shadow-0-composite" operator="in" in2="tmp"/><feMerge id="ezyZgiwnR242-filter-drop-shadow-0-merge"><feMergeNode id="ezyZgiwnR242-filter-drop-shadow-0-merge-node-1"/><feMergeNode id="ezyZgiwnR242-filter-drop-shadow-0-merge-node-2" in="SourceGraphic"/></feMerge></filter><linearGradient id="ezyZgiwnR243-fill" x1="640.075000" y1="51.015100" x2="113.458000" y2="481.178000" spreadMethod="pad" gradientUnits="userSpaceOnUse"><stop id="ezyZgiwnR243-fill-0" offset="0%" stop-color="rgba(0,48,218,0.94)"/><stop id="ezyZgiwnR243-fill-1" offset="36.589200%" stop-color="rgba(67,97,238,0.84)"/><stop id="ezyZgiwnR243-fill-2" offset="65.772800%" stop-color="rgb(15,55,255)"/><stop id="ezyZgiwnR243-fill-3" offset="99.961000%" stop-color="rgb(251,133,0)"/></linearGradient><linearGradient id="ezyZgiwnR244-stroke" x1="151.378000" y1="496.188000" x2="688.609000" y2="95.108800" spreadMethod="pad" gradientUnits="userSpaceOnUse"><stop id="ezyZgiwnR244-stroke-0" offset="0%" stop-color="rgb(111,142,255)"/><stop id="ezyZgiwnR244-stroke-1" offset="100%" stop-color="rgb(0,48,218)"/></linearGradient><linearGradient id="ezyZgiwnR249-fill" x1="6.015000" y1="0" x2="6.015000" y2="51.526500" spreadMethod="pad" gradientUnits="userSpaceOnUse"><stop id="ezyZgiwnR249-fill-0" offset="0%" stop-color="rgb(0,48,218)"/><stop id="ezyZgiwnR249-fill-1" offset="100%" stop-color="rgb(86,11,173)"/></linearGradient><linearGradient id="ezyZgiwnR2410-fill" x1="6.015000" y1="0" x2="6.015000" y2="62.690300" spreadMethod="pad" gradientUnits="userSpaceOnUse"><stop id="ezyZgiwnR2410-fill-0" offset="0%" stop-color="rgb(0,48,218)"/><stop id="ezyZgiwnR2410-fill-1" offset="100%" stop-color="rgb(86,11,173)"/></linearGradient><linearGradient id="ezyZgiwnR2411-fill" x1="6.015000" y1="0" x2="6.015000" y2="39.674900" spreadMethod="pad" gradientUnits="userSpaceOnUse"><stop id="ezyZgiwnR2411-fill-0" offset="0%" stop-color="rgb(0,48,218)"/><stop id="ezyZgiwnR2411-fill-1" offset="100%" stop-color="rgb(180,115,255)"/></linearGradient><linearGradient id="ezyZgiwnR2483-fill" x1="64.964000" y1="0" x2="8.467000" y2="76.979000" spreadMethod="pad" gradientUnits="userSpaceOnUse"><stop id="ezyZgiwnR2483-fill-0" offset="0%" stop-color="rgb(251,133,0)"/><stop id="ezyZgiwnR2483-fill-1" offset="86.566200%" stop-color="rgba(255,179,94,0.58)"/></linearGradient></defs><g id="ezyZgiwnR242" opacity="0.22" filter="url(#ezyZgiwnR242-filter)"><path id="ezyZgiwnR243" d="M111.562000,168.686000C111.562000,153.906000,122.327000,141.328000,136.930000,139.046000L665.573000,56.427600C683.767000,53.584100,700.205000,67.652400,700.205000,86.067800L700.205000,541.381000C700.205000,559.390000,684.448000,573.341000,666.571000,571.160000L137.928000,506.649000C122.877000,504.813000,111.562000,492.033000,111.562000,476.870000L111.562000,168.686000Z" transform="matrix(1 0 0 1 0 0.00245952500001)" fill="url(#ezyZgiwnR243-fill)" fill-opacity="0.4" stroke="none" stroke-width="1"/><path id="ezyZgiwnR244" d="M79.357400,147.892000C79.357400,134.350000,89.216700,122.823000,102.595000,120.725000L700.647000,26.905400C717.331000,24.288200,732.409000,37.186000,732.409000,54.073100L732.409000,573.380000C732.409000,589.894000,717.957000,602.684000,701.566000,600.676000L103.514000,527.420000C89.722200,525.731000,79.357400,514.019000,79.357400,500.124000L79.357400,147.892000Z" fill="none" stroke="url(#ezyZgiwnR244-stroke)" stroke-width="5" stroke-opacity="0.15"/></g><g id="ezyZgiwnR245"><rect id="ezyZgiwnR246" width="101.054000" height="120.228000" rx="15" ry="15" transform="matrix(1 0 0 1 176.20285840000005 18.75676373499999)" fill="rgb(255,255,255)" stroke="none" stroke-width="1"/></g><rect id="ezyZgiwnR247" width="80.805400" height="99.991300" rx="14.500000" ry="14.500000" transform="matrix(1 0 0 1 185.62899999999999 28.87506373500000)" fill="none" stroke="rgb(27,37,204)" stroke-width="1" stroke-opacity="0.4"/><g id="ezyZgiwnR248" transform="matrix(0.99998705052319 0.00508908498066 -0.00508908498066 0.99998705052319 0.43141790941542 -1.15532849149697)"><rect id="ezyZgiwnR249" width="12.030200" height="51.526200" rx="6.015100" ry="6.015100" transform="matrix(1 0 0 1 221.22000000000000 64.44326373499999)" fill="url(#ezyZgiwnR249-fill)" stroke="none" stroke-width="1"/><rect id="ezyZgiwnR2410" width="12.030200" height="62.690200" rx="6.015100" ry="6.015100" transform="matrix(1 0 0 1 198.36300000000000 52.42046373499999)" fill="url(#ezyZgiwnR2410-fill)" stroke="none" stroke-width="1"/><rect id="ezyZgiwnR2411" width="12.030200" height="39.675100" rx="6.015100" ry="6.015100" transform="matrix(1 0 0 1 244.07700000000000 75.26386373499999)" fill="url(#ezyZgiwnR2411-fill)" fill-opacity="0.5" stroke="none" stroke-width="1"/></g><path id="ezyZgiwnR2412" d="M206.861000,40.472700L203.821000,40.472700L203.261000,42.022700L202.301000,42.022700L204.821000,35.092700L205.871000,35.092700L208.381000,42.022700L207.421000,42.022700L206.861000,40.472700ZM206.601000,39.732700L205.341000,36.212700L204.081000,39.732700L206.601000,39.732700ZM212.150000,36.442700C212.816000,36.442700,213.356000,36.646000,213.770000,37.052700C214.183000,37.452700,214.390000,38.032700,214.390000,38.792700L214.390000,42.022700L213.490000,42.022700L213.490000,38.922700C213.490000,38.376000,213.353000,37.959400,213.080000,37.672700C212.806000,37.379400,212.433000,37.232700,211.960000,37.232700C211.480000,37.232700,211.096000,37.382700,210.810000,37.682700C210.530000,37.982700,210.390000,38.419400,210.390000,38.992700L210.390000,42.022700L209.480000,42.022700L209.480000,36.542700L210.390000,36.542700L210.390000,37.322700C210.570000,37.042700,210.813000,36.826000,211.120000,36.672700C211.433000,36.519400,211.776000,36.442700,212.150000,36.442700ZM215.536000,39.262700C215.536000,38.702700,215.650000,38.212700,215.876000,37.792700C216.103000,37.366000,216.413000,37.036000,216.806000,36.802700C217.206000,36.569400,217.650000,36.452700,218.136000,36.452700C218.616000,36.452700,219.033000,36.556000,219.386000,36.762700C219.740000,36.969400,220.003000,37.229400,220.176000,37.542700L220.176000,36.542700L221.096000,36.542700L221.096000,42.022700L220.176000,42.022700L220.176000,41.002700C219.996000,41.322700,219.726000,41.589400,219.366000,41.802700C219.013000,42.009400,218.600000,42.112700,218.126000,42.112700C217.640000,42.112700,217.200000,41.992700,216.806000,41.752700C216.413000,41.512700,216.103000,41.176000,215.876000,40.742700C215.650000,40.309400,215.536000,39.816000,215.536000,39.262700ZM220.176000,39.272700C220.176000,38.859400,220.093000,38.499400,219.926000,38.192700C219.760000,37.886000,219.533000,37.652700,219.246000,37.492700C218.966000,37.326000,218.656000,37.242700,218.316000,37.242700C217.976000,37.242700,217.666000,37.322700,217.386000,37.482700C217.106000,37.642700,216.883000,37.876000,216.716000,38.182700C216.550000,38.489400,216.466000,38.849400,216.466000,39.262700C216.466000,39.682700,216.550000,40.049400,216.716000,40.362700C216.883000,40.669400,217.106000,40.906000,217.386000,41.072700C217.666000,41.232700,217.976000,41.312700,218.316000,41.312700C218.656000,41.312700,218.966000,41.232700,219.246000,41.072700C219.533000,40.906000,219.760000,40.669400,219.926000,40.362700C220.093000,40.049400,220.176000,39.686000,220.176000,39.272700ZM223.544000,34.622700L223.544000,42.022700L222.634000,42.022700L222.634000,34.622700L223.544000,34.622700ZM225.565000,35.652700C225.392000,35.652700,225.245000,35.592700,225.125000,35.472700C225.005000,35.352700,224.945000,35.206000,224.945000,35.032700C224.945000,34.859400,225.005000,34.712700,225.125000,34.592700C225.245000,34.472700,225.392000,34.412700,225.565000,34.412700C225.732000,34.412700,225.872000,34.472700,225.985000,34.592700C226.105000,34.712700,226.165000,34.859400,226.165000,35.032700C226.165000,35.206000,226.105000,35.352700,225.985000,35.472700C225.872000,35.592700,225.732000,35.652700,225.565000,35.652700ZM226.005000,36.542700L226.005000,42.022700L225.095000,42.022700L225.095000,36.542700L226.005000,36.542700ZM229.496000,42.112700C229.076000,42.112700,228.699000,42.042700,228.366000,41.902700C228.033000,41.756000,227.769000,41.556000,227.576000,41.302700C227.383000,41.042700,227.276000,40.746000,227.256000,40.412700L228.196000,40.412700C228.223000,40.686000,228.349000,40.909400,228.576000,41.082700C228.809000,41.256000,229.113000,41.342700,229.486000,41.342700C229.833000,41.342700,230.106000,41.266000,230.306000,41.112700C230.506000,40.959400,230.606000,40.766000,230.606000,40.532700C230.606000,40.292700,230.499000,40.116000,230.286000,40.002700C230.073000,39.882700,229.743000,39.766000,229.296000,39.652700C228.889000,39.546000,228.556000,39.439400,228.296000,39.332700C228.043000,39.219400,227.823000,39.056000,227.636000,38.842700C227.456000,38.622700,227.366000,38.336000,227.366000,37.982700C227.366000,37.702700,227.449000,37.446000,227.616000,37.212700C227.783000,36.979400,228.019000,36.796000,228.326000,36.662700C228.633000,36.522700,228.983000,36.452700,229.376000,36.452700C229.983000,36.452700,230.473000,36.606000,230.846000,36.912700C231.219000,37.219400,231.419000,37.639400,231.446000,38.172700L230.536000,38.172700C230.516000,37.886000,230.399000,37.656000,230.186000,37.482700C229.979000,37.309400,229.699000,37.222700,229.346000,37.222700C229.019000,37.222700,228.759000,37.292700,228.566000,37.432700C228.373000,37.572700,228.276000,37.756000,228.276000,37.982700C228.276000,38.162700,228.333000,38.312700,228.446000,38.432700C228.566000,38.546000,228.713000,38.639400,228.886000,38.712700C229.066000,38.779400,229.313000,38.856000,229.626000,38.942700C230.019000,39.049400,230.339000,39.156000,230.586000,39.262700C230.833000,39.362700,231.043000,39.516000,231.216000,39.722700C231.396000,39.929400,231.489000,40.199400,231.496000,40.532700C231.496000,40.832700,231.413000,41.102700,231.246000,41.342700C231.079000,41.582700,230.843000,41.772700,230.536000,41.912700C230.236000,42.046000,229.889000,42.112700,229.496000,42.112700ZM232.440000,39.262700C232.440000,38.702700,232.554000,38.212700,232.780000,37.792700C233.007000,37.366000,233.317000,37.036000,233.710000,36.802700C234.110000,36.569400,234.554000,36.452700,235.040000,36.452700C235.520000,36.452700,235.937000,36.556000,236.290000,36.762700C236.644000,36.969400,236.907000,37.229400,237.080000,37.542700L237.080000,36.542700L238,36.542700L238,42.022700L237.080000,42.022700L237.080000,41.002700C236.900000,41.322700,236.630000,41.589400,236.270000,41.802700C235.917000,42.009400,235.504000,42.112700,235.030000,42.112700C234.544000,42.112700,234.104000,41.992700,233.710000,41.752700C233.317000,41.512700,233.007000,41.176000,232.780000,40.742700C232.554000,40.309400,232.440000,39.816000,232.440000,39.262700ZM237.080000,39.272700C237.080000,38.859400,236.997000,38.499400,236.830000,38.192700C236.664000,37.886000,236.437000,37.652700,236.150000,37.492700C235.870000,37.326000,235.560000,37.242700,235.220000,37.242700C234.880000,37.242700,234.570000,37.322700,234.290000,37.482700C234.010000,37.642700,233.787000,37.876000,233.620000,38.182700C233.454000,38.489400,233.370000,38.849400,233.370000,39.262700C233.370000,39.682700,233.454000,40.049400,233.620000,40.362700C233.787000,40.669400,234.010000,40.906000,234.290000,41.072700C234.570000,41.232700,234.880000,41.312700,235.220000,41.312700C235.560000,41.312700,235.870000,41.232700,236.150000,41.072700C236.437000,40.906000,236.664000,40.669400,236.830000,40.362700C236.997000,40.049400,237.080000,39.686000,237.080000,39.272700Z" fill="rgb(0,48,218)" stroke="none" stroke-width="1"/><g id="ezyZgiwnR2413"><rect id="ezyZgiwnR2414" width="45.714800" height="45.686500" rx="6" ry="6" transform="matrix(1 0 0 1 203.17500000000001 121.19300000000000)" fill="rgb(9,45,214)" fill-opacity="0.2" stroke="none" stroke-width="1"/></g><path id="ezyZgiwnR2415" d="M214.533000,134.569000L214.533000,142.129000C214.533000,142.885000,214.719000,143.467000,215.091000,143.875000C215.463000,144.283000,216.009000,144.487000,216.729000,144.487000C217.449000,144.487000,218.001000,144.283000,218.385000,143.875000C218.769000,143.467000,218.961000,142.885000,218.961000,142.129000L218.961000,134.569000L222.039000,134.569000L222.039000,142.111000C222.039000,143.239000,221.799000,144.193000,221.319000,144.973000C220.839000,145.753000,220.191000,146.341000,219.375000,146.737000C218.571000,147.133000,217.671000,147.331000,216.675000,147.331000C215.679000,147.331000,214.785000,147.139000,213.993000,146.755000C213.213000,146.359000,212.595000,145.771000,212.139000,144.991000C211.683000,144.199000,211.455000,143.239000,211.455000,142.111000L211.455000,134.569000L214.533000,134.569000ZM231.940000,147.205000L229.366000,143.335000L227.098000,147.205000L223.606000,147.205000L227.656000,140.779000L223.516000,134.569000L227.098000,134.569000L229.636000,138.385000L231.868000,134.569000L235.360000,134.569000L231.346000,140.941000L235.522000,147.205000L231.940000,147.205000Z" fill="rgb(0,48,218)" stroke="none" stroke-width="1"/><path id="ezyZgiwnR2416" d="M192.270000,601.941000C260.391000,601.941000,315.614000,591.483000,315.614000,578.582000C315.614000,565.681000,260.391000,555.222000,192.270000,555.222000C124.149000,555.222000,68.925800,565.681000,68.925800,578.582000C68.925800,591.483000,124.149000,601.941000,192.270000,601.941000Z" opacity="0.45" fill="rgb(230,230,230)" stroke="none" stroke-width="1"/><path id="ezyZgiwnR2417" d="M653.087000,186.560000L198.295000,186.560000L198.295000,485.405000L653.087000,485.405000L653.087000,186.560000Z" fill="rgb(230,230,230)" stroke="none" stroke-width="1"/><path id="ezyZgiwnR2418" d="M220.284000,213.834000C224.392000,213.834000,227.722000,210.504000,227.722000,206.396000C227.722000,202.287000,224.392000,198.957000,220.284000,198.957000C216.176000,198.957000,212.845000,202.287000,212.845000,206.396000C212.845000,210.504000,216.176000,213.834000,220.284000,213.834000Z" fill="rgb(36,40,91)" stroke="none" stroke-width="1"/><path id="ezyZgiwnR2419" d="M242.382000,213.834000C246.490000,213.834000,249.820000,210.504000,249.820000,206.396000C249.820000,202.287000,246.490000,198.957000,242.382000,198.957000C238.274000,198.957000,234.943000,202.287000,234.943000,206.396000C234.943000,210.504000,238.274000,213.834000,242.382000,213.834000Z" fill="rgb(104,225,253)" stroke="none" stroke-width="1"/><path id="ezyZgiwnR2420" d="M263.219000,213.834000C267.327000,213.834000,270.657000,210.504000,270.657000,206.396000C270.657000,202.287000,267.327000,198.957000,263.219000,198.957000C259.110000,198.957000,255.780000,202.287000,255.780000,206.396000C255.780000,210.504000,259.110000,213.834000,263.219000,213.834000Z" fill="rgb(255,210,0)" stroke="none" stroke-width="1"/><path id="ezyZgiwnR2421" d="M579.377000,186.560000L472.258000,186.995000L455.119000,211.115000L293.625000,359.429000L306.893000,385.202000L261.544000,403.081000L217.348000,403.081000L211.497000,485.405000L263.175000,485.405000L270.483000,437.337000C313.744000,431.573000,342.258000,391.923000,342.258000,391.923000L530.700000,311.339000L506.775000,256.225000L538.595000,241L540.357000,250.983000C540.357000,250.983000,557.561000,246.242000,556.843000,230.212000C556.126000,214.182000,554.625000,194.281000,579.377000,186.560000Z" opacity="0.08" fill="rgb(0,0,0)" stroke="none" stroke-width="1"/><path id="ezyZgiwnR2422" d="M490.984000,125.812000C488.353000,146.888000,477.478000,190.431000,432.825000,209.832000L439.350000,220.707000C439.350000,220.707000,501.490000,201.132000,516.475000,151.107000C523.196000,128.596000,518.911000,118.830000,512.125000,114.872000C510.064000,113.734000,507.755000,113.122000,505.401000,113.090000C503.046000,113.058000,500.721000,113.608000,498.630000,114.690000C496.539000,115.772000,494.747000,117.353000,493.414000,119.293000C492.080000,121.233000,491.246000,123.472000,490.984000,125.812000Z" fill="rgb(104,225,253)" stroke="none" stroke-width="1"/><path id="ezyZgiwnR2423" d="M490.984000,125.812000C488.353000,146.888000,477.478000,190.431000,432.825000,209.832000L439.350000,220.707000C439.350000,220.707000,501.490000,201.132000,516.475000,151.107000C523.196000,128.596000,518.911000,118.830000,512.125000,114.872000C510.064000,113.734000,507.755000,113.122000,505.401000,113.090000C503.046000,113.058000,500.721000,113.608000,498.630000,114.690000C496.539000,115.772000,494.747000,117.353000,493.414000,119.293000C492.080000,121.233000,491.246000,123.472000,490.984000,125.812000Z" opacity="0.2" fill="rgb(255,255,255)" stroke="none" stroke-width="1"/><path id="ezyZgiwnR2424" d="M496.683000,92.490900L507.362000,105.519000L516.758000,95.427100L499.902000,80.463100L496.683000,92.490900Z" fill="rgb(244,162,140)" stroke="none" stroke-width="1"/><path id="ezyZgiwnR2425" d="M489.157000,68.565900C487.519000,68.311400,485.843000,68.470800,484.282000,69.029700C482.720000,69.588600,481.324000,70.529200,480.219000,71.765800C479.114000,73.002400,478.337000,74.495700,477.957000,76.109800C477.577000,77.723800,477.606000,79.407300,478.043000,81.006900C480.023000,88.619400,484.286000,98.994200,492.420000,95.427200C504.839000,89.989700,498.314000,73.677200,498.314000,73.677200C495.831000,71.110100,492.646000,69.332200,489.157000,68.565900L489.157000,68.565900Z" fill="rgb(244,162,140)" stroke="none" stroke-width="1"/><path id="ezyZgiwnR2426" d="M505.666000,170.552000L484.481000,181.427000C482.667000,182.371000,481.061000,183.670000,479.761000,185.248000C478.460000,186.826000,477.490000,188.650000,476.909000,190.611000C476.329000,192.572000,476.149000,194.630000,476.381000,196.662000C476.614000,198.693000,477.253000,200.658000,478.261000,202.437000L497.292000,235.388000L506.557000,228.863000L495.682000,198.805000C495.499000,198.308000,495.422000,197.777000,495.457000,197.249000C495.493000,196.720000,495.640000,196.204000,495.888000,195.736000C496.136000,195.268000,496.481000,194.858000,496.899000,194.532000C497.317000,194.206000,497.799000,193.972000,498.314000,193.846000L519.433000,188.691000L515.671000,198.696000C514.484000,201.822000,514.063000,205.186000,514.441000,208.508000C514.820000,211.830000,515.987000,215.014000,517.846000,217.793000L537.421000,246.981000L544.837000,242.435000L535.420000,216.575000C534.385000,213.736000,534.148000,210.667000,534.734000,207.703000C535.321000,204.739000,536.709000,201.992000,538.747000,199.762000L548.948000,188.582000L505.666000,170.552000Z" fill="rgb(36,40,91)" stroke="none" stroke-width="1"/><path id="ezyZgiwnR2427" d="M583.987000,436.032000L563.303000,436.032000L563.303000,485.405000L583.987000,485.405000L583.987000,436.032000Z" opacity="0.08" fill="rgb(0,0,0)" stroke="none" stroke-width="1"/><path id="ezyZgiwnR2428" d="M473.302000,71.328100C473.302000,71.328100,469.865000,82.377100,481.828000,79.658300C493.790000,76.939600,492.877000,73.133300,492.877000,73.133300C492.877000,73.133300,493.790000,86.183300,499.772000,83.290600C505.753000,80.397800,502.316000,73.285600,499.772000,68.413600C497.227000,63.541600,495.726000,62.084300,488.897000,61.366600C482.067000,60.648800,474.150000,64.629100,473.302000,71.328100Z" fill="rgb(36,40,91)" stroke="none" stroke-width="1"/><path id="ezyZgiwnR2429" d="M493.072000,80.745800C493.072000,80.745800,492.572000,77.026600,496.161000,77.744300C499.750000,78.462100,498.336000,83.638600,496.161000,84.008300C493.986000,84.378100,493.072000,80.745800,493.072000,80.745800Z" fill="rgb(244,162,140)" stroke="none" stroke-width="1"/><g id="ezyZgiwnR2430" transform="matrix(0.84664970996402 0.53215060708209 -0.53215060708209 0.84664970996402 232.49050562847813 -31.76410900397531)"><path id="ezyZgiwnR2431" d="M177.763000,363.518000L183.091000,379.504000L170.455000,387.530000L165.887000,359.820000L177.763000,363.518000Z" transform="matrix(1 0 0 1 -0.51024523999999 -0.02199999999999)" fill="rgb(244,162,140)" stroke="none" stroke-width="1"/><path id="ezyZgiwnR2432" d="M161.559000,344.378000C162.222000,342.858000,163.253000,341.527000,164.560000,340.507000C165.867000,339.486000,167.407000,338.808000,169.043000,338.534000C170.678000,338.259000,172.356000,338.397000,173.924000,338.936000C175.492000,339.474000,176.902000,340.395000,178.024000,341.615000C183.396000,347.357000,189.878000,356.514000,182.548000,361.473000C171.303000,369.086000,160.994000,354.948000,160.994000,354.948000C160.128000,351.447000,160.325000,347.767000,161.559000,344.378000L161.559000,344.378000Z" transform="matrix(1 0 0 1 0 -0.02199999999999)" fill="rgb(244,162,140)" stroke="none" stroke-width="1"/><path id="ezyZgiwnR2433" d="M171.368000,350.033000C171.368000,350.033000,177.328000,367.128000,166.910000,366.062000C156.491000,364.997000,162.212000,357.645000,157.035000,350.033000C151.859000,342.420000,154.599000,337.287000,162.473000,330.610000C166.105000,327.543000,168.541000,326.129000,169.976000,324.498000C170.587000,323.775000,171.371000,323.219000,172.254000,322.882000C173.138000,322.545000,174.093000,322.438000,175.030000,322.570000C175.967000,322.703000,176.855000,323.071000,177.610000,323.640000C178.366000,324.209000,178.965000,324.961000,179.351000,325.825000C182.048000,332.393000,182.069000,341.180000,171.368000,350.033000Z" transform="matrix(1 0 0 1 0 -0.33591222999996)" fill="rgb(36,40,91)" stroke="none" stroke-width="1"/><path id="ezyZgiwnR2434" d="M169.781000,354.187000C169.781000,354.187000,166.888000,351.773000,165.583000,355.187000C164.278000,358.602000,169.367000,360.277000,170.890000,358.537000C172.412000,356.797000,169.781000,354.187000,169.781000,354.187000Z" fill="rgb(244,162,140)" stroke="none" stroke-width="1"/></g><path id="ezyZgiwnR2435" d="M505.100000,102.757000L516.758000,95.427200C516.758000,95.427200,554.625000,82.486000,566.588000,94.383200C578.550000,106.280000,579.398000,151.172000,548.948000,188.582000L505.666000,170.552000C505.666000,170.552000,506.536000,149.019000,499.337000,143.582000C492.137000,138.144000,483.285000,121.832000,505.100000,102.757000Z" fill="rgb(255,180,0)" stroke="none" stroke-width="1"/><path id="ezyZgiwnR2436" d="M499.467000,233.757000C499.467000,233.757000,497.096000,244.763000,501.338000,244.371000C505.579000,243.980000,506.558000,228.755000,506.558000,228.755000L499.467000,233.757000Z" fill="rgb(104,225,253)" stroke="none" stroke-width="1"/><path id="ezyZgiwnR2437" d="M537.638000,246.481000C537.638000,246.481000,535.267000,257.465000,539.509000,257.095000C543.750000,256.725000,544.707000,241.478000,544.707000,241.478000L537.638000,246.481000Z" fill="rgb(104,225,253)" stroke="none" stroke-width="1"/><path id="ezyZgiwnR2438" d="M597.712000,181.057000C597.712000,181.057000,590.404000,184.211000,593.101000,187.821000C595.798000,191.432000,605.042000,186.560000,605.042000,186.560000L605.607000,181.057000L597.712000,181.057000Z" fill="rgb(244,162,140)" stroke="none" stroke-width="1"/><path id="ezyZgiwnR2439" d="M433.717000,211.115000C433.717000,211.115000,421.711000,212.094000,424.234000,214.856000C425.474000,216.352000,427.035000,217.549000,428.801000,218.358000C428.801000,218.358000,420.101000,228.080000,426.430000,230.016000C432.760000,231.952000,438.937000,219.837000,438.937000,219.837000L433.717000,211.115000Z" fill="rgb(244,162,140)" stroke="none" stroke-width="1"/><g id="ezyZgiwnR2440" transform="matrix(1 0 0 1 37.48700708499985 36.35951892499969)"><path id="ezyZgiwnR2441" d="M458.345000,205.467000L246.249000,303.357000L285.072000,387.475000L497.169000,289.585000L458.345000,205.467000Z" transform="matrix(1 0 0 1 0 -0.13950585999993)" fill="rgb(4,41,79)" stroke="none" stroke-width="1"/><path id="ezyZgiwnR2442" d="M440.899000,240.137000L339.118000,286.908000L345.475000,300.742000L447.256000,253.972000L440.899000,240.137000Z" opacity="0.58" fill="rgb(255,255,255)" stroke="none" stroke-width="1"/><path id="ezyZgiwnR2443" d="M454.059000,268.804000L352.278000,315.574000L358.635000,329.409000L460.416000,282.638000L454.059000,268.804000Z" opacity="0.58" fill="rgb(255,255,255)" stroke="none" stroke-width="1"/><path id="ezyZgiwnR2444" d="M308.937000,351.620000C322.295000,351.620000,333.123000,340.792000,333.123000,327.434000C333.123000,314.077000,322.295000,303.248000,308.937000,303.248000C295.579000,303.248000,284.751000,314.077000,284.751000,327.434000C284.751000,340.792000,295.579000,351.620000,308.937000,351.620000Z" fill="rgb(255,255,255)" stroke="none" stroke-width="1"/></g><path id="ezyZgiwnR2445" d="M416.904000,160.199000C416.904000,160.199000,396.002000,154.587000,391.500000,135.186000C391.500000,135.186000,423.799000,128.509000,424.864000,161.873000L416.904000,160.199000Z" opacity="0.58" fill="rgb(104,225,253)" stroke="none" stroke-width="1"/><path id="ezyZgiwnR2446" d="M419.449000,158.111000C419.449000,158.111000,404.768000,135.121000,417.513000,113.523000C417.513000,113.523000,442.156000,129.031000,431.368000,158.111000L419.449000,158.111000Z" opacity="0.73" fill="rgb(104,225,253)" stroke="none" stroke-width="1"/><path id="ezyZgiwnR2447" d="M423.211000,158.111000C423.211000,158.111000,430.802000,133.751000,454.075000,129.031000C454.075000,129.031000,458.425000,144.821000,439.111000,158.111000L423.211000,158.111000Z" fill="rgb(104,225,253)" stroke="none" stroke-width="1"/><path id="ezyZgiwnR2448" d="M291.450000,239.021000L227.701000,239.021000L227.701000,250.983000L291.450000,250.983000L291.450000,239.021000Z" opacity="0.63" fill="rgb(206,206,206)" stroke="none" stroke-width="1"/><path id="ezyZgiwnR2449" d="M167.627000,384.376000C167.627000,384.376000,130.283000,406.996000,125.389000,460.066000C124.981000,464.458000,126.164000,468.851000,128.723000,472.444000C131.282000,476.037000,135.046000,478.591000,139.331000,479.641000L183.092000,490.407000L167.627000,384.376000Z" fill="rgb(104,225,253)" stroke="none" stroke-width="1"/><path id="ezyZgiwnR2450" d="M167.627000,384.376000C167.627000,384.376000,130.283000,406.996000,125.389000,460.066000C124.981000,464.458000,126.164000,468.851000,128.723000,472.444000C131.282000,476.037000,135.046000,478.591000,139.331000,479.641000L183.092000,490.407000L167.627000,384.376000Z" opacity="0.2" fill="rgb(255,255,255)" stroke="none" stroke-width="1"/><path id="ezyZgiwnR2451" d="M408.073000,157.632000L412.423000,186.560000L439.067000,186.560000L442.874000,157.632000L408.073000,157.632000Z" fill="rgb(36,40,91)" stroke="none" stroke-width="1"/><path id="ezyZgiwnR2452" d="M653.087000,265.556000L557.518000,265.556000L557.518000,415.826000L653.087000,415.826000L653.087000,265.556000Z" opacity="0.08" fill="rgb(0,0,0)" stroke="none" stroke-width="1"/><path id="ezyZgiwnR2453" d="M175.451000,444.183000L103.340000,462.768000L116.662000,514.457000L188.773000,495.872000L175.451000,444.183000Z" fill="rgb(255,210,0)" stroke="none" stroke-width="1"/><path id="ezyZgiwnR2454" d="M145.921000,450.931000L154.186000,485.405000L152.033000,504.392000L171.368000,499.390000L177.132000,483.991000L158.558000,447.647000L145.921000,450.931000Z" opacity="0.08" fill="rgb(0,0,0)" stroke="none" stroke-width="1"/><path id="ezyZgiwnR2455" d="M158.993000,395.490000C160.767000,391.553000,163.370000,388.046000,166.625000,385.208000C169.879000,382.371000,173.708000,380.269000,177.850000,379.047000C193.814000,374.240000,224.134000,364.192000,233.095000,379.047000C245.362000,399.492000,226.570000,479.771000,226.570000,479.771000L172.913000,483.926000C172.913000,483.926000,143.311000,430.769000,158.993000,395.490000Z" fill="rgb(240,78,35)" stroke="none" stroke-width="1"/><path id="ezyZgiwnR2456" d="M226.483000,479.837000L219.414000,572.078000L208.256000,572.078000L198.295000,500.412000L173.630000,483.991000L226.483000,479.837000Z" fill="rgb(36,40,91)" stroke="none" stroke-width="1"/><path id="ezyZgiwnR2457" d="M173.630000,483.991000L158.231000,572.078000L170.194000,572.078000L196.033000,498.911000L173.630000,483.991000Z" fill="rgb(36,40,91)" stroke="none" stroke-width="1"/><g id="ezyZgiwnR2458" transform="matrix(0.91302421281941 0.40790536501191 -0.40790536501191 0.91302421281941 180.21702820853903 -55.59638108042697)"><g id="ezyZgiwnR2459"><path id="ezyZgiwnR2460" d="M201.057000,391.336000C200.334000,389.072000,200.150000,386.670000,200.521000,384.323000C200.893000,381.975000,201.808000,379.748000,203.195000,377.817000C204.582000,375.887000,206.401000,374.309000,208.508000,373.208000C210.614000,372.107000,212.949000,371.515000,215.325000,371.478000C222.155000,371.261000,230.006000,372.435000,236.031000,377.307000C249.451000,388.182000,293.451000,395.577000,333.166000,359.233000L340.801000,370.956000C340.801000,370.956000,295.691000,429.681000,225.047000,412.803000C219.676000,411.586000,214.695000,409.047000,210.555000,405.415000C206.414000,401.784000,203.247000,397.176000,201.340000,392.010000C201.231000,391.793000,201.144000,391.553000,201.057000,391.336000Z" fill="rgb(104,225,253)" stroke="none" stroke-width="1"/><path id="ezyZgiwnR2461" d="M201.057000,391.336000C200.334000,389.072000,200.150000,386.670000,200.521000,384.323000C200.893000,381.975000,201.808000,379.748000,203.195000,377.817000C204.582000,375.887000,206.401000,374.309000,208.508000,373.208000C210.614000,372.107000,212.949000,371.515000,215.325000,371.478000C222.155000,371.261000,230.006000,372.435000,236.031000,377.307000C249.451000,388.182000,293.451000,395.577000,333.166000,359.233000L340.801000,370.956000C340.801000,370.956000,295.691000,429.681000,225.047000,412.803000C219.676000,411.586000,214.695000,409.047000,210.555000,405.415000C206.414000,401.784000,203.247000,397.176000,201.340000,392.010000C201.231000,391.793000,201.144000,391.553000,201.057000,391.336000Z" transform="matrix(1 0 0 1 1.34775604000004 0)" opacity="0.2" fill="rgb(255,255,255)" stroke="none" stroke-width="1"/></g><path id="ezyZgiwnR2462" d="M338.800000,367.933000C338.800000,367.933000,348.109000,370.978000,350.088000,357.275000L334.276000,360.995000L338.800000,367.933000Z" transform="matrix(1 0 0 1 1.34775604000004 0)" fill="rgb(244,162,140)" stroke="none" stroke-width="1"/></g><path id="ezyZgiwnR2463" d="M182.482000,377.633000C182.482000,377.633000,157.383000,458.478000,229.854000,463.829000L226.483000,479.837000L172.825000,483.991000C160.487000,462.255000,154.229000,437.597000,154.708000,412.607000C154.708000,412.607000,155.164000,391.988000,169.693000,382.875000C173.536000,380.240000,177.896000,378.453000,182.482000,377.633000Z" opacity="0.08" fill="rgb(0,0,0)" stroke="none" stroke-width="1"/><path id="ezyZgiwnR2464" d="M160.406000,572.078000L152.990000,577.538000C152.708000,577.739000,152.498000,578.025000,152.389000,578.354000C152.281000,578.682000,152.280000,579.037000,152.387000,579.367000C152.493000,579.696000,152.702000,579.983000,152.982000,580.186000C153.263000,580.389000,153.600000,580.497000,153.947000,580.496000L166.388000,580.496000C166.818000,580.490000,167.230000,580.316000,167.535000,580.012000C167.840000,579.707000,168.013000,579.295000,168.019000,578.864000L168.019000,572.078000L160.406000,572.078000Z" fill="rgb(104,225,253)" stroke="none" stroke-width="1"/><path id="ezyZgiwnR2465" d="M219.110000,572.078000L226.091000,577.538000C226.364000,577.749000,226.563000,578.041000,226.661000,578.372000C226.760000,578.703000,226.752000,579.056000,226.639000,579.383000C226.526000,579.709000,226.314000,579.992000,226.033000,580.191000C225.751000,580.391000,225.414000,580.497000,225.069000,580.496000L216.217000,580.496000C214.963000,580.490000,213.763000,579.988000,212.878000,579.099000C211.994000,578.211000,211.497000,577.008000,211.497000,575.754000L211.497000,572.078000L219.110000,572.078000Z" fill="rgb(104,225,253)" stroke="none" stroke-width="1"/><path id="ezyZgiwnR2466" d="M756.970000,374L599,374L599,536.212000L756.970000,536.212000L756.970000,374Z" fill="rgb(242,242,242)" stroke="none" stroke-width="1"/><path id="ezyZgiwnR2467" d="M724.867000,414.020000L627.536000,414.020000L627.536000,419.849000L724.867000,419.849000L724.867000,414.020000Z" fill="rgb(165,165,165)" stroke="none" stroke-width="1"/><path id="ezyZgiwnR2468" d="M724.867000,450.843000L627.536000,450.843000L627.536000,456.672000L724.867000,456.672000L724.867000,450.843000Z" fill="rgb(165,165,165)" stroke="none" stroke-width="1"/><path id="ezyZgiwnR2469" d="M724.867000,487.665000L627.536000,487.665000L627.536000,493.494000L724.867000,493.494000L724.867000,487.665000Z" fill="rgb(165,165,165)" stroke="none" stroke-width="1"/><path id="ezyZgiwnR2470" d="M719.821000,403.254000L719.800000,403.254000C715.091000,403.254000,711.274000,407.071000,711.274000,411.780000L711.274000,422.089000C711.274000,426.798000,715.091000,430.615000,719.800000,430.615000L719.821000,430.615000C724.530000,430.615000,728.347000,426.798000,728.347000,422.089000L728.347000,411.780000C728.347000,407.071000,724.530000,403.254000,719.821000,403.254000Z" fill="rgb(36,40,91)" stroke="none" stroke-width="1"/><path id="ezyZgiwnR2471" d="M681.259000,440.077000L681.237000,440.077000C676.528000,440.077000,672.711000,443.894000,672.711000,448.603000L672.711000,458.912000C672.711000,463.621000,676.528000,467.438000,681.237000,467.438000L681.259000,467.438000C685.967000,467.438000,689.784000,463.621000,689.784000,458.912000L689.784000,448.603000C689.784000,443.894000,685.967000,440.077000,681.259000,440.077000Z" fill="rgb(104,225,253)" stroke="none" stroke-width="1"/><path id="ezyZgiwnR2472" d="M655.158000,476.921000L655.137000,476.921000C650.428000,476.921000,646.611000,480.738000,646.611000,485.447000L646.611000,495.757000C646.611000,500.465000,650.428000,504.283000,655.137000,504.283000L655.158000,504.283000C659.867000,504.283000,663.684000,500.465000,663.684000,495.757000L663.684000,485.447000C663.684000,480.738000,659.867000,476.921000,655.158000,476.921000Z" fill="rgb(255,210,0)" stroke="none" stroke-width="1"/><path id="ezyZgiwnR2473" d="M533.636000,407.300000L355.352000,407.300000L355.352000,447.929000L533.636000,447.929000L533.636000,407.300000Z" fill="rgb(255,255,255)" stroke="none" stroke-width="1"/><path id="ezyZgiwnR2474" d="M533.636000,407.300000L472.845000,407.300000L472.845000,447.929000L533.636000,447.929000L533.636000,407.300000Z" fill="rgb(36,40,91)" stroke="none" stroke-width="1"/><path id="ezyZgiwnR2475" d="M523.501000,177.968000C523.501000,177.968000,542.423000,174.358000,548.948000,148.258000C555.473000,122.158000,541.575000,101.430000,554.995000,98.232900C568.414000,95.035700,573.982000,129.074000,573.982000,129.074000C573.982000,129.074000,574.504000,155.696000,548.948000,188.626000L523.501000,177.968000Z" opacity="0.08" fill="rgb(0,0,0)" stroke="none" stroke-width="1"/><path id="ezyZgiwnR2476" d="M563.695000,92.055800C574.831000,96.014300,592.231000,103.888000,603.976000,117.221000C607.308000,121.013000,609.775000,125.485000,611.206000,130.326000C612.637000,135.167000,612.998000,140.262000,612.263000,145.256000L606.999000,181.057000L594.493000,181.057000L595.058000,148.432000C595.088000,144.984000,594.005000,141.618000,591.972000,138.832000C589.939000,136.047000,587.063000,133.991000,583.770000,132.968000C570.263000,128.835000,549.536000,119.657000,549.514000,102.257000C549.491000,100.542000,549.882000,98.847500,550.654000,97.316500C551.425000,95.785400,552.555000,94.463200,553.947000,93.462000C555.339000,92.460800,556.952000,91.810200,558.649000,91.565400C560.346000,91.320600,562.077000,91.488800,563.695000,92.055800L563.695000,92.055800Z" fill="rgb(104,225,253)" stroke="none" stroke-width="1"/><path id="ezyZgiwnR2477" d="M563.695000,92.055800C574.831000,96.014300,592.231000,103.888000,603.976000,117.221000C607.308000,121.013000,609.775000,125.485000,611.206000,130.326000C612.637000,135.167000,612.998000,140.262000,612.263000,145.256000L606.999000,181.057000L594.493000,181.057000L595.058000,148.432000C595.088000,144.984000,594.005000,141.618000,591.972000,138.832000C589.939000,136.047000,587.063000,133.991000,583.770000,132.968000C570.263000,128.835000,549.536000,119.657000,549.514000,102.257000C549.491000,100.542000,549.882000,98.847500,550.654000,97.316500C551.425000,95.785400,552.555000,94.463200,553.947000,93.462000C555.339000,92.460800,556.952000,91.810200,558.649000,91.565400C560.346000,91.320600,562.077000,91.488800,563.695000,92.055800L563.695000,92.055800Z" transform="matrix(1 0 0 1 -1.69630322000012 0)" opacity="0.2" fill="rgb(255,255,255)" stroke="none" stroke-width="1"/><path id="ezyZgiwnR2478" d="M532.875000,377.633000L451.682000,377.633000L451.682000,387.508000L532.875000,387.508000L532.875000,377.633000Z" opacity="0.08" fill="rgb(0,0,0)" stroke="none" stroke-width="1"/><g id="ezyZgiwnR2479" transform="matrix(1 0 0 1 29.52423095999984 72.88400305499977)"><g id="ezyZgiwnR2480"><rect id="ezyZgiwnR2481" width="288.725000" height="119.025000" rx="20" ry="20" transform="matrix(1 0 0 1 563 140.94999999499998)" fill="rgb(255,255,255)" stroke="none" stroke-width="1"/><rect id="ezyZgiwnR2482" width="281.725000" height="112.025000" rx="16.500000" ry="16.500000" transform="matrix(1 0 0 1 566.50000000000000 142.50000000000000)" fill="none" stroke="rgb(251,133,0)" stroke-width="7" stroke-opacity="0.2"/></g><rect id="ezyZgiwnR2483" width="76.993300" height="76.945700" rx="10" ry="10" transform="matrix(1 0 0 1 585.85699999999997 160.62576373499999)" fill="url(#ezyZgiwnR2483-fill)" stroke="none" stroke-width="1"/><path id="ezyZgiwnR2484" d="M624.354000,177.473000C612.392000,177.473000,602.700000,187.159000,602.700000,199.114000C602.700000,211.069000,612.392000,220.755000,624.354000,220.755000C636.316000,220.755000,646.008000,211.069000,646.008000,199.114000C646.008000,187.159000,636.316000,177.473000,624.354000,177.473000ZM624.354000,185.850000C628.598000,185.850000,632.038000,189.288000,632.038000,193.529000C632.038000,197.770000,628.598000,201.208000,624.354000,201.208000C620.111000,201.208000,616.670000,197.770000,616.670000,193.529000C616.670000,189.288000,620.111000,185.850000,624.354000,185.850000ZM624.354000,215.868000C619.229000,215.868000,614.636000,213.547000,611.562000,209.917000C613.204000,206.828000,616.417000,204.699000,620.163000,204.699000C620.372000,204.699000,620.582000,204.734000,620.783000,204.795000C621.918000,205.161000,623.105000,205.397000,624.354000,205.397000C625.603000,205.397000,626.799000,205.161000,627.925000,204.795000C628.126000,204.734000,628.336000,204.699000,628.545000,204.699000C632.291000,204.699000,635.504000,206.828000,637.146000,209.917000C634.072000,213.547000,629.480000,215.868000,624.354000,215.868000Z" transform="matrix(1 0 0 1 0 -0.01523626500000)" fill="rgb(255,255,255)" stroke="none" stroke-width="1"/><rect id="ezyZgiwnR2485" width="139.550000" height="16.831900" rx="8.415940" ry="8.415940" transform="matrix(1.01122065785757 -0.00169835322860 0.00167950567475 0.99999858962935 684.49096488672342 176.79047419405612)" fill="rgb(251,133,0)" stroke="none" stroke-width="1"/><rect id="ezyZgiwnR2486" width="101.054000" height="16.831900" rx="8.415940" ry="8.415940" transform="matrix(1 0 0 1 684.50500000000000 203.90776373500000)" fill="rgb(251,133,0)" fill-opacity="0.4" stroke="none" stroke-width="1"/></g><g id="ezyZgiwnR2487"><rect id="ezyZgiwnR2488" width="96.241600" height="96.182200" rx="15" ry="15" transform="matrix(1 0 0 1 271 514)" fill="rgb(255,255,255)" stroke="none" stroke-width="1"/></g><path id="ezyZgiwnR2489" d="M293.480000,574.808000L283.736000,564.200000L293.480000,553.592000L303.800000,553.592000L294.008000,564.200000L303.800000,574.808000L293.480000,574.808000ZM328.702000,535.400000L315.838000,589.976000L307.918000,589.976000L320.782000,535.400000L328.702000,535.400000ZM332.212000,553.592000L342.532000,553.592000L352.276000,564.200000L342.532000,574.808000L332.212000,574.808000L342.004000,564.200000L332.212000,553.592000Z" fill="rgb(251,133,0)" stroke="none" stroke-width="1"/><script><![CDATA[!function(t,n){"object"==typeof exports&&"undefined"!=typeof module?module.exports=n():"function"==typeof define&&define.amd?define(n):(t="undefined"!=typeof globalThis?globalThis:t||self).__SVGATOR_PLAYER__=n()}(this,(function(){"use strict";function t(n){return(t="function"==typeof Symbol&&"symbol"==typeof Symbol.iterator?function(t){return typeof t}:function(t){return t&&"function"==typeof Symbol&&t.constructor===Symbol&&t!==Symbol.prototype?"symbol":typeof t})(n)}function n(t,n){if(!(t instanceof n))throw new TypeError("Cannot call a class as a function")}function r(t,n){for(var r=0;r<n.length;r++){var e=n[r];e.enumerable=e.enumerable||!1,e.configurable=!0,"value"in e&&(e.writable=!0),Object.defineProperty(t,e.key,e)}}function e(t,n,e){return n&&r(t.prototype,n),e&&r(t,e),t}function i(t){return(i=Object.setPrototypeOf?Object.getPrototypeOf:function(t){return t.__proto__||Object.getPrototypeOf(t)})(t)}function o(t,n){return(o=Object.setPrototypeOf||function(t,n){return t.__proto__=n,t})(t,n)}function u(t,n){return!n||"object"!=typeof n&&"function"!=typeof n?function(t){if(void 0===t)throw new ReferenceError("this hasn't been initialised - super() hasn't been called");return t}(t):n}function a(t){var n=function(){if("undefined"==typeof Reflect||!Reflect.construct)return!1;if(Reflect.construct.sham)return!1;if("function"==typeof Proxy)return!0;try{return Boolean.prototype.valueOf.call(Reflect.construct(Boolean,[],(function(){}))),!0}catch(t){return!1}}();return function(){var r,e=i(t);if(n){var o=i(this).constructor;r=Reflect.construct(e,arguments,o)}else r=e.apply(this,arguments);return u(this,r)}}function l(t,n,r){return(l="undefined"!=typeof Reflect&&Reflect.get?Reflect.get:function(t,n,r){var e=function(t,n){for(;!Object.prototype.hasOwnProperty.call(t,n)&&null!==(t=i(t)););return t}(t,n);if(e){var o=Object.getOwnPropertyDescriptor(e,n);return o.get?o.get.call(r):o.value}})(t,n,r||t)}var f=Math.abs;function s(t){return t}function c(t,n,r){var e=1-r;return 3*r*e*(t*e+n*r)+r*r*r}function h(){var t=arguments.length>0&&void 0!==arguments[0]?arguments[0]:0,n=arguments.length>1&&void 0!==arguments[1]?arguments[1]:0,r=arguments.length>2&&void 0!==arguments[2]?arguments[2]:1,e=arguments.length>3&&void 0!==arguments[3]?arguments[3]:1;return t<0||t>1||r<0||r>1?null:f(t-n)<=1e-5&&f(r-e)<=1e-5?s:function(i){if(i<=0)return t>0?i*n/t:0===n&&r>0?i*e/r:0;if(i>=1)return r<1?1+(i-1)*(e-1)/(r-1):1===r&&t<1?1+(i-1)*(n-1)/(t-1):1;for(var o,u=0,a=1;u<a;){var l=c(t,r,o=(u+a)/2);if(f(i-l)<1e-5)break;l<i?u=o:a=o}return c(n,e,o)}}function v(){return 1}function y(t){return 1===t?1:0}function d(){var t=arguments.length>0&&void 0!==arguments[0]?arguments[0]:1,n=arguments.length>1&&void 0!==arguments[1]?arguments[1]:0;if(1===t){if(0===n)return y;if(1===n)return v}var r=1/t;return function(t){return t>=1?1:(t+=n*r)-t%r}}function g(t){var n=arguments.length>1&&void 0!==arguments[1]?arguments[1]:2;if(Number.isInteger(t))return t;var r=Math.pow(10,n);return Math.round(t*r)/r}var p=Math.PI/180;function m(t,n,r){return t>=.5?r:n}function b(t,n,r){return 0===t||n===r?n:t*(r-n)+n}function w(t,n,r){var e=b(t,n,r);return e<=0?0:e}function x(t,n,r){return 0===t?n:1===t?r:{x:b(t,n.x,r.x),y:b(t,n.y,r.y)}}function k(t,n,r){var e=function(t,n,r){return Math.round(b(t,n,r))}(t,n,r);return e<=0?0:e>=255?255:e}function A(t,n,r){return 0===t?n:1===t?r:{r:k(t,n.r,r.r),g:k(t,n.g,r.g),b:k(t,n.b,r.b),a:b(t,null==n.a?1:n.a,null==r.a?1:r.a)}}function _(t,n,r){if(0===t)return n;if(1===t)return r;var e=n.length;if(e!==r.length)return m(t,n,r);for(var i=[],o=0;o<e;o++)i.push(A(t,n[o],r[o]));return i}function S(t,n){for(var r=[],e=0;e<t;e++)r.push(n);return r}function O(t,n){if(--n<=0)return t;var r=(t=Object.assign([],t)).length;do{for(var e=0;e<r;e++)t.push(t[e])}while(--n>0);return t}var M,j=function(){function t(r){n(this,t),this.list=r,this.length=r.length}return e(t,[{key:"setAttribute",value:function(t,n){for(var r=this.list,e=0;e<this.length;e++)r[e].setAttribute(t,n)}},{key:"removeAttribute",value:function(t){for(var n=this.list,r=0;r<this.length;r++)n[r].removeAttribute(t)}},{key:"style",value:function(t,n){for(var r=this.list,e=0;e<this.length;e++)r[e].style[t]=n}}]),t}(),F=/-./g,P=function(t,n){return n.toUpperCase()};function B(t){return"function"==typeof t?t:m}function I(t){return t?"function"==typeof t?t:Array.isArray(t)?function(t){var n=arguments.length>1&&void 0!==arguments[1]?arguments[1]:s;if(!Array.isArray(t))return n;switch(t.length){case 1:return d(t[0])||n;case 2:return d(t[0],t[1])||n;case 4:return h(t[0],t[1],t[2],t[3])||n}return n}(t,null):function(t,n){var r=arguments.length>2&&void 0!==arguments[2]?arguments[2]:s;switch(t){case"linear":return s;case"steps":return d(n.steps||1,n.jump||0)||r;case"bezier":case"cubic-bezier":return h(n.x1||0,n.y1||0,n.x2||0,n.y2||0)||r}return r}(t.type,t.value,null):null}function R(t,n,r){var e=arguments.length>3&&void 0!==arguments[3]&&arguments[3],i=n.length-1;if(t<=n[0].t)return e?[0,0,n[0].v]:n[0].v;if(t>=n[i].t)return e?[i,1,n[i].v]:n[i].v;var o,u=n[0],a=null;for(o=1;o<=i;o++){if(!(t>n[o].t)){a=n[o];break}u=n[o]}return null==a?e?[i,1,n[i].v]:n[i].v:u.t===a.t?e?[o,1,a.v]:a.v:(t=(t-u.t)/(a.t-u.t),u.e&&(t=u.e(t)),e?[o,t,r(t,u.v,a.v)]:r(t,u.v,a.v))}function q(t,n){var r=arguments.length>2&&void 0!==arguments[2]?arguments[2]:null;return t&&t.length?"function"!=typeof n?null:("function"!=typeof r&&(r=null),function(e){var i=R(e,t,n);return null!=i&&r&&(i=r(i)),i}):null}function E(t,n){return t.t-n.t}function T(n,r,e,i,o){var u,a="@"===e[0],l="#"===e[0],f=M[e],s=m;switch(a?(u=e.substr(1),e=u.replace(F,P)):l&&(e=e.substr(1)),t(f)){case"function":if(s=f(i,o,R,I,e,a,r,n),l)return s;break;case"string":s=q(i,B(f));break;case"object":if((s=q(i,B(f.i),f.f))&&"function"==typeof f.u)return f.u(r,s,e,a,n)}return s?function(t,n,r){var e=arguments.length>3&&void 0!==arguments[3]&&arguments[3];if(e)return t instanceof j?function(e){return t.style(n,r(e))}:function(e){return t.style[n]=r(e)};if(Array.isArray(n)){var i=n.length;return function(e){var o=r(e);if(null==o)for(var u=0;u<i;u++)t[u].removeAttribute(n);else for(var a=0;a<i;a++)t[a].setAttribute(n,o)}}return function(e){var i=r(e);null==i?t.removeAttribute(n):t.setAttribute(n,i)}}(r,e,s,a):null}function N(n,r,e,i){if(!i||"object"!==t(i))return null;var o=null,u=null;return Array.isArray(i)?u=function(t){if(!t||!t.length)return null;for(var n=0;n<t.length;n++)t[n].e&&(t[n].e=I(t[n].e));return t.sort(E)}(i):(u=i.keys,o=i.data||null),u?T(n,r,e,u,o):null}function C(t,n,r){if(!r)return null;var e=[];for(var i in r)if(r.hasOwnProperty(i)){var o=N(t,n,i,r[i]);o&&e.push(o)}return e.length?e:null}function z(t,n){if(!n.duration||n.duration<0)return null;var r=function(t,n){if(!n)return null;var r=[];if(Array.isArray(n))for(var e=n.length,i=0;i<e;i++){var o=n[i];if(2===o.length){var u=null;if("string"==typeof o[0])u=t.getElementById(o[0]);else if(Array.isArray(o[0])){u=[];for(var a=0;a<o[0].length;a++)if("string"==typeof o[0][a]){var l=t.getElementById(o[0][a]);l&&u.push(l)}u=u.length?1===u.length?u[0]:new j(u):null}if(u){var f=C(t,u,o[1]);f&&(r=r.concat(f))}}}else for(var s in n)if(n.hasOwnProperty(s)){var c=t.getElementById(s);if(c){var h=C(t,c,n[s]);h&&(r=r.concat(h))}}return r.length?r:null}(t,n.elements);return r?function(t,n){var r=arguments.length>2&&void 0!==arguments[2]?arguments[2]:1/0,e=arguments.length>3&&void 0!==arguments[3]?arguments[3]:1,i=arguments.length>4&&void 0!==arguments[4]&&arguments[4],o=arguments.length>5&&void 0!==arguments[5]?arguments[5]:1,u=t.length,a=e>0?n:0;i&&r%2==0&&(a=n-a);var l=null;return function(f,s){var c=f%n,h=1+(f-c)/n;s*=e,i&&h%2==0&&(s=-s);var v=!1;if(h>r)c=a,v=!0,-1===o&&(c=e>0?0:n);else if(s<0&&(c=n-c),c===l)return!1;l=c;for(var y=0;y<u;y++)t[y](c);return v}}(r,n.duration,n.iterations||1/0,n.direction||1,!!n.alternate,n.fill||1):null}var L=function(){function t(r,e){var i=arguments.length>2&&void 0!==arguments[2]?arguments[2]:{};n(this,t),this._id=0,this._running=!1,this._rollingBack=!1,this._animations=r,this.duration=e.duration,this.alternate=e.alternate,this.fill=e.fill,this.iterations=e.iterations,this.direction=i.direction||1,this.speed=i.speed||1,this.fps=i.fps||100,this.offset=i.offset||0,this.rollbackStartOffset=0}return e(t,[{key:"_rollback",value:function(){var t=this,n=1/0,r=null;this.rollbackStartOffset=this.offset,this._rollingBack||(this._rollingBack=!0,this._running=!0);this._id=window.requestAnimationFrame((function e(i){if(t._rollingBack){null==r&&(r=i);var o=i-r,u=t.rollbackStartOffset-o,a=Math.round(u*t.speed);if(a>t.duration&&n!=1/0){var l=!!t.alternate&&a/t.duration%2>1,f=a%t.duration;a=(f+=l?t.duration:0)||t.duration}var s=t.fps?1e3/t.fps:0,c=Math.max(0,a);if(c<n-s){t.offset=c,n=c;for(var h=t._animations,v=h.length,y=0;y<v;y++)h[y](c,t.direction)}var d=!1;if(t.iterations>0&&-1===t.fill){var g=t.iterations*t.duration,p=g==a;a=p?0:a,t.offset=p?0:t.offset,d=a>g}a>0&&t.offset>=a&&!d?t._id=window.requestAnimationFrame(e):t.stop()}}))}},{key:"_start",value:function(){var t=this,n=arguments.length>0&&void 0!==arguments[0]?arguments[0]:0,r=-1/0,e=null,i={},o=function o(u){t._running=!0,null==e&&(e=u);var a=Math.round((u-e+n)*t.speed),l=t.fps?1e3/t.fps:0;if(a>r+l&&!t._rollingBack){t.offset=a,r=a;for(var f=t._animations,s=f.length,c=0,h=0;h<s;h++)i[h]?c++:(i[h]=f[h](a,t.direction),i[h]&&c++);if(c===s)return void t._stop()}t._id=window.requestAnimationFrame(o)};this._id=window.requestAnimationFrame(o)}},{key:"_stop",value:function(){this._id&&window.cancelAnimationFrame(this._id),this._running=!1,this._rollingBack=!1}},{key:"play",value:function(){!this._rollingBack&&this._running||(this._rollingBack=!1,this.rollbackStartOffset>this.duration&&(this.offset=this.rollbackStartOffset-(this.rollbackStartOffset-this.offset)%this.duration,this.rollbackStartOffset=0),this._start(this.offset))}},{key:"stop",value:function(){this._stop(),this.offset=0,this.rollbackStartOffset=0;var t=this.direction,n=this._animations;window.requestAnimationFrame((function(){for(var r=0;r<n.length;r++)n[r](0,t)}))}},{key:"reachedToEnd",value:function(){return this.iterations>0&&this.offset>=this.iterations*this.duration}},{key:"restart",value:function(){this._stop(),this.offset=0,this._start()}},{key:"pause",value:function(){this._stop()}},{key:"reverse",value:function(){this.direction=-this.direction}}],[{key:"build",value:function(n,r){return(n=function(t,n){if(M=n,!t||!t.root||!Array.isArray(t.animations))return null;for(var r=document.getElementsByTagName("svg"),e=!1,i=0;i<r.length;i++)if(r[i].id===t.root&&!r[i].svgatorAnimation){(e=r[i]).svgatorAnimation=!0;break}if(!e)return null;var o=t.animations.map((function(t){return z(e,t)})).filter((function(t){return!!t}));return o.length?{element:e,animations:o,animationSettings:t.animationSettings,options:t.options||void 0}:null}(n,r))?{el:n.element,options:n.options||{},player:new t(n.animations,n.animationSettings,n.options)}:null}}]),t}();!function(){for(var t=0,n=["ms","moz","webkit","o"],r=0;r<n.length&&!window.requestAnimationFrame;++r)window.requestAnimationFrame=window[n[r]+"RequestAnimationFrame"],window.cancelAnimationFrame=window[n[r]+"CancelAnimationFrame"]||window[n[r]+"CancelRequestAnimationFrame"];window.requestAnimationFrame||(window.requestAnimationFrame=function(n){var r=Date.now(),e=Math.max(0,16-(r-t)),i=window.setTimeout((function(){n(r+e)}),e);return t=r+e,i},window.cancelAnimationFrame=window.clearTimeout)}();var D=/\.0+$/g;function Q(t){return Number.isInteger(t)?t+"":t.toFixed(6).replace(D,"")}function U(t){var n=arguments.length>1&&void 0!==arguments[1]?arguments[1]:" ";return t&&t.length?t.map(Q).join(n):""}function V(t){return t?null==t.a||t.a>=1?"rgb("+t.r+","+t.g+","+t.b+")":"rgba("+t.r+","+t.g+","+t.b+","+t.a+")":"transparent"}var $={f:null,i:function(t,n,r){return 0===t?n:1===t?r:{x:w(t,n.x,r.x),y:w(t,n.y,r.y)}},u:function(t,n){return function(r){var e=n(r);t.setAttribute("rx",Q(e.x)),t.setAttribute("ry",Q(e.y))}}},G={f:null,i:function(t,n,r){return 0===t?n:1===t?r:{width:w(t,n.width,r.width),height:w(t,n.height,r.height)}},u:function(t,n){return function(r){var e=n(r);t.setAttribute("width",Q(e.width)),t.setAttribute("height",Q(e.height))}}},H=Math.sin,Y=Math.cos,Z=Math.acos,J=Math.asin,K=Math.tan,W=Math.atan2,X=Math.PI/180,tt=180/Math.PI,nt=Math.sqrt,rt=function(){function t(){var r=arguments.length>0&&void 0!==arguments[0]?arguments[0]:1,e=arguments.length>1&&void 0!==arguments[1]?arguments[1]:0,i=arguments.length>2&&void 0!==arguments[2]?arguments[2]:0,o=arguments.length>3&&void 0!==arguments[3]?arguments[3]:1,u=arguments.length>4&&void 0!==arguments[4]?arguments[4]:0,a=arguments.length>5&&void 0!==arguments[5]?arguments[5]:0;n(this,t),this.m=[r,e,i,o,u,a],this.i=null,this.w=null,this.s=null}return e(t,[{key:"determinant",get:function(){var t=this.m;return t[0]*t[3]-t[1]*t[2]}},{key:"isIdentity",get:function(){if(null===this.i){var t=this.m;this.i=1===t[0]&&0===t[1]&&0===t[2]&&1===t[3]&&0===t[4]&&0===t[5]}return this.i}},{key:"point",value:function(t,n){var r=this.m;return{x:r[0]*t+r[2]*n+r[4],y:r[1]*t+r[3]*n+r[5]}}},{key:"translateSelf",value:function(){var t=arguments.length>0&&void 0!==arguments[0]?arguments[0]:0,n=arguments.length>1&&void 0!==arguments[1]?arguments[1]:0;if(!t&&!n)return this;var r=this.m;return r[4]+=r[0]*t+r[2]*n,r[5]+=r[1]*t+r[3]*n,this.w=this.s=this.i=null,this}},{key:"rotateSelf",value:function(){var t=arguments.length>0&&void 0!==arguments[0]?arguments[0]:0;if(t%=360){var n=H(t*=X),r=Y(t),e=this.m,i=e[0],o=e[1];e[0]=i*r+e[2]*n,e[1]=o*r+e[3]*n,e[2]=e[2]*r-i*n,e[3]=e[3]*r-o*n,this.w=this.s=this.i=null}return this}},{key:"scaleSelf",value:function(){var t=arguments.length>0&&void 0!==arguments[0]?arguments[0]:1,n=arguments.length>1&&void 0!==arguments[1]?arguments[1]:1;if(1!==t||1!==n){var r=this.m;r[0]*=t,r[1]*=t,r[2]*=n,r[3]*=n,this.w=this.s=this.i=null}return this}},{key:"skewSelf",value:function(t,n){if(n%=360,(t%=360)||n){var r=this.m,e=r[0],i=r[1],o=r[2],u=r[3];t&&(t=K(t*X),r[2]+=e*t,r[3]+=i*t),n&&(n=K(n*X),r[0]+=o*n,r[1]+=u*n),this.w=this.s=this.i=null}return this}},{key:"resetSelf",value:function(){var t=arguments.length>0&&void 0!==arguments[0]?arguments[0]:1,n=arguments.length>1&&void 0!==arguments[1]?arguments[1]:0,r=arguments.length>2&&void 0!==arguments[2]?arguments[2]:0,e=arguments.length>3&&void 0!==arguments[3]?arguments[3]:1,i=arguments.length>4&&void 0!==arguments[4]?arguments[4]:0,o=arguments.length>5&&void 0!==arguments[5]?arguments[5]:0,u=this.m;return u[0]=t,u[1]=n,u[2]=r,u[3]=e,u[4]=i,u[5]=o,this.w=this.s=this.i=null,this}},{key:"recomposeSelf",value:function(){var t=arguments.length>0&&void 0!==arguments[0]?arguments[0]:null,n=arguments.length>1&&void 0!==arguments[1]?arguments[1]:null,r=arguments.length>2&&void 0!==arguments[2]?arguments[2]:null,e=arguments.length>3&&void 0!==arguments[3]?arguments[3]:null,i=arguments.length>4&&void 0!==arguments[4]?arguments[4]:null;return this.isIdentity||this.resetSelf(),t&&(t.x||t.y)&&this.translateSelf(t.x,t.y),n&&this.rotateSelf(n),r&&(r.x&&this.skewSelf(r.x,0),r.y&&this.skewSelf(0,r.y)),!e||1===e.x&&1===e.y||this.scaleSelf(e.x,e.y),i&&(i.x||i.y)&&this.translateSelf(i.x,i.y),this}},{key:"decompose",value:function(){var t=arguments.length>0&&void 0!==arguments[0]?arguments[0]:0,n=arguments.length>1&&void 0!==arguments[1]?arguments[1]:0,r=this.m,e=r[0]*r[0]+r[1]*r[1],i=[[r[0],r[1]],[r[2],r[3]]],o=nt(e);if(0===o)return{origin:{x:r[4],y:r[5]},translate:{x:t,y:n},scale:{x:0,y:0},skew:{x:0,y:0},rotate:0};i[0][0]/=o,i[0][1]/=o;var u=r[0]*r[3]-r[1]*r[2]<0;u&&(o=-o);var a=i[0][0]*i[1][0]+i[0][1]*i[1][1];i[1][0]-=i[0][0]*a,i[1][1]-=i[0][1]*a;var l=nt(i[1][0]*i[1][0]+i[1][1]*i[1][1]);if(0===l)return{origin:{x:r[4],y:r[5]},translate:{x:t,y:n},scale:{x:o,y:0},skew:{x:0,y:0},rotate:0};i[1][0]/=l,i[1][1]/=l,a/=l;var f=0;return i[1][1]<0?(f=Z(i[1][1])*tt,i[0][1]<0&&(f=360-f)):f=J(i[0][1])*tt,u&&(f=-f),a=W(a,nt(i[0][0]*i[0][0]+i[0][1]*i[0][1]))*tt,u&&(a=-a),{origin:{x:r[4],y:r[5]},translate:{x:t,y:n},scale:{x:o,y:l},skew:{x:a,y:0},rotate:f}}},{key:"toString",value:function(){return null===this.s&&(this.s="matrix("+this.m.map(it).join(" ")+")"),this.s}}]),t}(),et=/\.0+$/;function it(t){return Number.isInteger(t)?t:t.toFixed(14).replace(et,"")}Object.freeze({M:2,L:2,Z:0,H:1,V:1,C:6,Q:4,T:2,S:4,A:7});var ot={},ut=null;function at(n){var r=function(){if(ut)return ut;if("object"!==("undefined"==typeof document?"undefined":t(document)))return{};var n=document.createElementNS("http://www.w3.org/2000/svg","svg");return n.style.position="absolute",n.style.opacity="0.01",n.style.zIndex="-9999",n.style.left="-9999px",n.style.width="1px",n.style.height="1px",ut={svg:n}}().svg;if(!r)return function(t){return null};var e=document.createElementNS(r.namespaceURI,"path");e.setAttributeNS(null,"d",n),e.setAttributeNS(null,"fill","none"),e.setAttributeNS(null,"stroke","none"),r.appendChild(e);var i=e.getTotalLength();return function(t){var n=e.getPointAtLength(i*t);return{x:n.x,y:n.y}}}function lt(t){return ot[t]?ot[t]:ot[t]=at(t)}function ft(t,n,r,e){if(!t||!e)return!1;var i=["M",t.x,t.y];if(n&&r&&(i.push("C"),i.push(n.x),i.push(n.y),i.push(r.x),i.push(r.y)),n?!r:r){var o=n||r;i.push("Q"),i.push(o.x),i.push(o.y)}return n||r||i.push("L"),i.push(e.x),i.push(e.y),i.join(" ")}function st(t,n,r,e){var i=arguments.length>4&&void 0!==arguments[4]?arguments[4]:1,o=ft(t,n,r,e),u=lt(o);try{return u(i)}catch(t){return null}}function ct(t,n,r,e){var i=1-e;return i*i*t+2*i*e*n+e*e*r}function ht(t,n,r,e){return 2*(1-e)*(n-t)+2*e*(r-n)}function vt(t,n,r,e){var i=arguments.length>4&&void 0!==arguments[4]&&arguments[4],o=st(t,n,null,r,e);return o||(o={x:ct(t.x,n.x,r.x,e),y:ct(t.y,n.y,r.y,e)}),i&&(o.a=yt(t,n,r,e)),o}function yt(t,n,r,e){return Math.atan2(ht(t.y,n.y,r.y,e),ht(t.x,n.x,r.x,e))}function dt(t,n,r,e,i){var o=i*i;return i*o*(e-t+3*(n-r))+3*o*(t+r-2*n)+3*i*(n-t)+t}function gt(t,n,r,e,i){var o=1-i;return 3*(o*o*(n-t)+2*o*i*(r-n)+i*i*(e-r))}function pt(t,n,r,e,i){var o=arguments.length>5&&void 0!==arguments[5]&&arguments[5],u=st(t,n,r,e,i);return u||(u={x:dt(t.x,n.x,r.x,e.x,i),y:dt(t.y,n.y,r.y,e.y,i)}),o&&(u.a=mt(t,n,r,e,i)),u}function mt(t,n,r,e,i){return Math.atan2(gt(t.y,n.y,r.y,e.y,i),gt(t.x,n.x,r.x,e.x,i))}function bt(t,n,r){return t+(n-t)*r}function wt(t,n,r){var e=arguments.length>3&&void 0!==arguments[3]&&arguments[3],i={x:bt(t.x,n.x,r),y:bt(t.y,n.y,r)};return e&&(i.a=xt(t,n)),i}function xt(t,n){return Math.atan2(n.y-t.y,n.x-t.x)}function kt(t,n,r){var e=arguments.length>3&&void 0!==arguments[3]&&arguments[3];if(_t(n)){if(St(r))return vt(n,r.start,r,t,e)}else if(_t(r)){if(n.end)return vt(n,n.end,r,t,e)}else{if(n.end)return r.start?pt(n,n.end,r.start,r,t,e):vt(n,n.end,r,t,e);if(r.start)return vt(n,r.start,r,t,e)}return wt(n,r,t,e)}function At(t,n,r){var e=kt(t,n,r,!0);return e.a=function(t){var n=arguments.length>1&&void 0!==arguments[1]&&arguments[1];return n?t+Math.PI:t}(e.a)/p,e}function _t(t){return!t.type||"corner"===t.type}function St(t){return null!=t.start&&!_t(t)}var Ot=new rt;var Mt={f:Q,i:b},jt={f:Q,i:function(t,n,r){var e=b(t,n,r);return e<=0?0:e>=1?1:e}};function Ft(t,n,r,e,i,o,u,a){return n=function(t,n,r){for(var e,i,o,u=t.length-1,a={},l=0;l<=u;l++)(e=t[l]).e&&(e.e=n(e.e)),e.v&&"g"===(i=e.v).t&&i.r&&(o=r.getElementById(i.r))&&(a[i.r]=o.querySelectorAll("stop"));return a}(t,e,a),function(e){var i,o=r(e,t,Pt);return o?"c"===o.t?V(o.v):"g"===o.t?(n[o.r]&&function(t,n){for(var r=0,e=t.length;r<e;r++)t[r].setAttribute("stop-color",V(n[r]))}(n[o.r],o.v),(i=o.r)?"url(#"+i+")":"none"):"none":"none"}}function Pt(t,n,r){if(0===t)return n;if(1===t)return r;if(n&&r){var e=n.t;if(e===r.t)switch(n.t){case"c":return{t:e,v:A(t,n.v,r.v)};case"g":if(n.r===r.r)return{t:e,v:_(t,n.v,r.v),r:n.r}}}return m(t,n,r)}var Bt={fill:Ft,"fill-opacity":jt,stroke:Ft,"stroke-opacity":jt,"stroke-width":Mt,"stroke-dashoffset":{f:Q,i:b},"stroke-dasharray":{f:function(t){var n=arguments.length>1&&void 0!==arguments[1]?arguments[1]:" ";return t&&t.length>0&&(t=t.map((function(t){return Math.floor(1e4*t)/1e4}))),U(t,n)},i:function(t,n,r){var e,i,o,u=n.length,a=r.length;if(u!==a)if(0===u)n=S(u=a,0);else if(0===a)a=u,r=S(u,0);else{var l=(o=(e=u)*(i=a)/function(t,n){for(var r;n;)r=n,n=t%n,t=r;return t||1}(e,i))<0?-o:o;n=O(n,Math.floor(l/u)),r=O(r,Math.floor(l/a)),u=a=l}for(var f=[],s=0;s<u;s++)f.push(g(w(t,n[s],r[s]),6));return f}},opacity:jt,transform:function(n,r,e,i){if(!(n=function(n,r){if(!n||"object"!==t(n))return null;var e=!1;for(var i in n)n.hasOwnProperty(i)&&(n[i]&&n[i].length?(n[i].forEach((function(t){t.e&&(t.e=r(t.e))})),e=!0):delete n[i]);return e?n:null}(n,i)))return null;var o=function(t,i,o){var u=arguments.length>3&&void 0!==arguments[3]?arguments[3]:null;return n[t]?e(i,n[t],o):r&&r[t]?r[t]:u};return r&&r.a&&n.o?function(t){var r=e(t,n.o,At);return Ot.recomposeSelf(r,o("r",t,b,0)+r.a,o("k",t,x),o("s",t,x),o("t",t,x)).toString()}:function(t){return Ot.recomposeSelf(o("o",t,kt,null),o("r",t,b,0),o("k",t,x),o("s",t,x),o("t",t,x)).toString()}},r:Mt,"#size":G,"#radius":$,_:function(t,n){if(Array.isArray(t))for(var r=0;r<t.length;r++)this[t[r]]=n;else this[t]=n}};return function(t){!function(t,n){if("function"!=typeof n&&null!==n)throw new TypeError("Super expression must either be null or a function");t.prototype=Object.create(n&&n.prototype,{constructor:{value:t,writable:!0,configurable:!0}}),n&&o(t,n)}(u,t);var r=a(u);function u(){return n(this,u),r.apply(this,arguments)}return e(u,null,[{key:"build",value:function(t){var n=l(i(u),"build",this).call(this,t,Bt);n.el,n.options;var r=n.player;return function(t,n,r){t.play()}(r),r}}]),u}(L)}));
__SVGATOR_PLAYER__.build({"root":"ezyZgiwnR241","animations":[{"duration":3000,"direction":1,"iterations":1,"fill":1,"alternate":false,"speed":1,"elements":{"ezyZgiwnR242":{"opacity":[{"t":0,"v":0.22},{"t":1200,"v":0.18},{"t":2000,"v":0.85},{"t":3000,"v":1}]},"ezyZgiwnR248":{"opacity":[{"t":0,"v":1},{"t":1200,"v":0.09},{"t":2200,"v":0.65},{"t":3000,"v":1}]},"ezyZgiwnR2430":{"transform":{"data":{"o":{"x":171.35858154,"y":387.508,"type":"corner"},"t":{"x":-171.35858154,"y":-387.508}},"keys":{"r":[{"t":0,"v":32.15087817255434},{"t":800,"v":17.760305384364496},{"t":1900,"v":11.919399519329211},{"t":3000,"v":4.344029355987169}]}}},"ezyZgiwnR2440":{"transform":{"data":{"t":{"x":-371.708999635,"y":-296.33149719}},"keys":{"o":[{"t":0,"v":{"x":409.19600671999984,"y":332.6910161149997,"type":"corner"}},{"t":1000,"v":{"x":398.0409932849997,"y":304.8380130649997,"type":"corner"}},{"t":1700,"v":{"x":391.2979932899996,"y":291.5664869449998,"type":"corner"}},{"t":3000,"v":{"x":381.0979932849996,"y":279.49336657499964,"type":"corner"}}]}}},"ezyZgiwnR2458":{"transform":{"data":{"o":{"x":210.3932,"y":379.76781597,"type":"corner"},"t":{"x":-205.13896720677246,"y":-385.18903093246246}},"keys":{"r":[{"t":0,"v":24.073320855270904},{"t":800,"v":11.066220531738553},{"t":2200,"v":1.1686334574331145},{"t":3000,"v":-5.239025026568288}]}}},"ezyZgiwnR2470":{"transform":{"data":{"t":{"x":-719.8104858398438,"y":-416.9344940185547}},"keys":{"o":[{"t":0,"v":{"x":719.8104858398438,"y":416.9344940185547,"type":"corner"}},{"t":1000,"v":{"x":693.0414858398442,"y":416.9344940185547,"type":"corner"}},{"t":2100,"v":{"x":662.8502858398434,"y":417.1314940185547,"type":"corner"}},{"t":3000,"v":{"x":716.330485839843,"y":417.1314940185547,"type":"corner"}}]}}},"ezyZgiwnR2471":{"transform":{"data":{"t":{"x":-681.2474975585938,"y":-453.7574920654297}},"keys":{"o":[{"t":100,"v":{"x":681.2474975585938,"y":453.7574920654297,"type":"corner"}},{"t":800,"v":{"x":700.2049975585944,"y":453.757492065431,"type":"corner"}},{"t":2000,"v":{"x":648.5219521085941,"y":455.1059920654316,"type":"corner"}},{"t":2900,"v":{"x":677.984997558594,"y":455.1059920654316,"type":"corner"}}]}}},"ezyZgiwnR2472":{"transform":{"data":{"t":{"x":-655.1475219726562,"y":-490.60198974609375}},"keys":{"o":[{"t":100,"v":{"x":655.1475219726562,"y":490.60198974609375,"type":"corner"}},{"t":900,"v":{"x":695.8981015226558,"y":490.40698974609376,"type":"corner"}},{"t":2000,"v":{"x":707.362521972656,"y":490.40698974609376,"type":"corner"}},{"t":3000,"v":{"x":654.544521972656,"y":490.71098974609373,"type":"corner"}}]}}},"ezyZgiwnR2474":{"transform":{"data":{"t":{"x":-503.24049377441406,"y":-427.61448669433594}},"keys":{"o":[{"t":0,"v":{"x":503.24049377441406,"y":427.61448669433594,"type":"corner"}},{"t":1100,"v":{"x":425.8324937694145,"y":427.614486694336,"type":"corner"}},{"t":2200,"v":{"x":397.6370937744146,"y":427.614486694336,"type":"corner"}},{"t":3000,"v":{"x":502.6822835694145,"y":427.6144866943361,"type":"corner"}}]}}},"ezyZgiwnR2479":{"transform":{"data":{"t":{"x":-707.362487795,"y":-198.49726105000002}},"keys":{"o":[{"t":100,"v":{"x":736.8867187549998,"y":271.3812641049998,"type":"corner"}},{"t":1300,"v":{"x":717.9005737300004,"y":218.70395385499975,"type":"corner"}},{"t":2200,"v":{"x":707.6654877950006,"y":193.36426409999964,"type":"corner"}},{"t":3000,"v":{"x":707.6654877950006,"y":175.09034484499963,"type":"corner"}}]}}}}}],"options":{"start":"load","hover":"freeze","click":"freeze","scroll":25,"font":"embed","exportedIds":"unique","svgFormat":"animated","title":"landing-page"},"animationSettings":{"duration":3000,"direction":1,"iterations":1,"fill":1,"alternate":false,"speed":1}})]]></script></svg>