<svg width="134" height="66" viewBox="0 0 134 66" fill="none" xmlns="http://www.w3.org/2000/svg">
<path d="M0.524685 55.7195C0.0387645 55.982 -0.142359 56.5887 0.120135 57.0746L4.39768 64.9931C4.66017 65.479 5.26688 65.6602 5.7528 65.3977C6.23872 65.1352 6.41984 64.5285 6.15735 64.0425L2.35508 57.0039L9.39375 53.2016C9.87966 52.9391 10.0608 52.3324 9.7983 51.8465C9.5358 51.3606 8.9291 51.1795 8.44318 51.442L0.524685 55.7195ZM131.512 0.95413C124.192 14.3402 108.868 33.1841 86.7482 46.0887C64.6585 58.9759 35.7935 65.9428 1.28602 55.6411L0.713909 57.5575C35.8178 68.0373 65.2517 60.9452 87.7561 47.8162C110.23 34.7046 125.796 15.5751 133.267 1.91377L131.512 0.95413Z" fill="#787878"/>
</svg>
