<svg width="131" height="72" viewBox="0 0 131 72" fill="none" xmlns="http://www.w3.org/2000/svg">
<path d="M125.615 71.9227C126.124 72.1356 126.71 71.8951 126.923 71.3854L130.392 63.0809C130.605 62.5713 130.364 61.9856 129.854 61.7727C129.345 61.5598 128.759 61.8004 128.546 62.31L125.463 69.6918L118.081 66.6083C117.571 66.3954 116.986 66.6359 116.773 67.1456C116.56 67.6552 116.8 68.2409 117.31 68.4537L125.615 71.9227ZM0.67841 4.48396C15.6907 1.76194 39.9787 1.83277 63.9201 10.9224C87.829 19.9997 111.393 38.0678 125.075 71.3799L126.925 70.6201C113.007 36.7322 88.9876 18.3003 64.6299 9.05261C40.3046 -0.182767 15.6426 -0.26194 0.32159 2.51605L0.67841 4.48396Z" fill="#787878"/>
</svg>
